<svg width="40" height="40" viewBox="0 0 40 40" fill="none" xmlns="http://www.w3.org/2000/svg">
<path d="M34.5291 22.8643C34.5291 22.8643 34.3634 23.0211 34.3243 23.0607C34.2851 23.1004 34.2459 23.1436 34.2317 23.2031C34.2174 23.2626 34.1497 23.459 34.1337 23.5221C34.1195 23.5852 34.139 23.6104 34.1141 23.659C34.0892 23.7077 34.066 23.7383 34.066 23.7383L33.8951 23.7672C33.8951 23.7672 33.6475 23.7221 33.6083 23.7041C33.5692 23.6861 33.3216 23.6302 33.2967 23.5906C33.2717 23.5509 33.229 23.4482 33.2041 23.414C33.1791 23.3797 33.1791 23.2662 33.1791 23.2662C33.1791 23.2662 33.1506 23.1869 33.2183 23.1526C33.286 23.1184 33.3643 23.0734 33.3643 23.0734C33.3643 23.0734 33.4623 23.0445 33.4623 23.0049C33.4623 22.9652 33.4908 22.7237 33.6172 22.6499C33.7437 22.576 33.8416 22.5021 33.8594 22.439C33.879 22.3759 33.8844 22.3165 33.9182 22.2858C33.952 22.257 33.9912 22.2372 33.9912 22.2372C33.9912 22.2372 34.0696 22.1687 34.0536 22.129C34.0393 22.0894 33.6689 21.8732 33.6457 21.8335C33.6226 21.7939 33.6208 21.5037 33.6457 21.4352C33.6707 21.3668 33.6992 21.2875 33.6938 21.2478C33.6885 21.2082 33.6796 21.1487 33.6796 21.1487L33.5923 21.0802C33.5923 21.0802 33.5335 21.0748 33.5139 21.1199C33.4944 21.1649 33.4356 21.228 33.4659 21.2929C33.4944 21.3559 33.5104 21.3415 33.5139 21.3956C33.5193 21.4497 33.4997 21.4551 33.4748 21.5145C33.4498 21.574 33.3234 21.6082 33.3234 21.6082C33.3234 21.6082 33.0366 21.574 32.9886 21.6136C32.9405 21.6533 32.7891 21.8641 32.7018 21.9236C32.6146 21.9831 32.5611 22.0029 32.5166 21.9777C32.4721 21.9524 32.4917 21.9488 32.4578 21.9182C32.424 21.8894 32.4044 21.8587 32.3759 21.8786C32.3474 21.8984 32.367 21.8876 32.3136 21.9182C32.2602 21.947 32.2317 21.9867 32.2067 21.9524C32.1818 21.9182 32.1782 21.8101 32.1729 21.7758C32.1676 21.7416 32.1444 21.7074 32.1444 21.7074C32.1444 21.7074 31.9307 21.6245 31.8666 21.5794C31.8042 21.5344 31.7063 21.4424 31.7259 21.3379C31.7455 21.2334 31.7989 20.9487 31.7348 20.8117C31.6724 20.6747 31.6226 20.5072 31.5834 20.5504C31.5442 20.5955 31.3412 20.8802 31.2183 20.9487C31.0972 21.0171 31.058 21.0676 30.9565 21.091C30.855 21.1163 30.8051 21.1397 30.8051 21.1397C30.8051 21.1397 30.7125 21.2136 30.6733 21.3019C30.6342 21.3902 30.6003 21.4388 30.6288 21.5776C30.6573 21.7146 30.7357 22.0984 30.7303 22.2372C30.725 22.3741 30.7357 22.4102 30.6858 22.5381C30.6377 22.6661 30.5647 22.7346 30.5006 22.7832C30.4383 22.8319 30.4187 22.812 30.3492 22.9058C30.2815 22.9995 29.9556 23.4428 29.8968 23.5257C29.8381 23.6086 29.7116 23.7221 29.6778 23.8266C29.644 23.9294 29.6529 23.9258 29.619 24.0375C29.5852 24.151 29.5798 24.1654 29.5068 24.2988C29.4338 24.4321 29.3519 24.5493 29.1667 24.6538C28.9814 24.7565 28.7873 24.8448 28.7001 24.8809C28.6128 24.9151 28.4418 24.9151 28.4418 24.9151C28.4418 24.9151 28.1551 24.8214 28.1106 24.8124C28.066 24.8034 27.9645 24.807 27.8915 24.8322C27.8185 24.8574 27.6636 24.8809 27.6636 24.8809C27.6636 24.8809 27.5371 24.8358 27.489 24.807C27.4409 24.7782 27.2504 24.5961 27.2361 24.5024C27.2219 24.4087 27.2611 24.3204 27.318 24.2664C27.3768 24.2123 27.4587 24.1132 27.4587 24.1132C27.4587 24.1132 27.2985 23.9366 27.2058 23.9258C27.1132 23.9167 26.7838 24.0285 26.6858 24.0789C26.5879 24.1276 26.554 24.142 26.5148 24.2123C26.4757 24.2808 26.4863 24.2952 26.4418 24.3492C26.3973 24.4033 26.408 24.4484 26.3403 24.4321C26.2726 24.4177 26.18 24.4177 26.18 24.4177L26.0928 24.4916C26.0928 24.4916 25.9717 24.5601 25.9325 24.6448C25.8933 24.7277 25.9075 24.7241 25.879 24.7872C25.8506 24.8502 25.8345 24.8863 25.7864 24.9151C25.7384 24.9439 25.4712 25.0881 25.3982 25.1602C25.3252 25.2323 25.3056 25.1998 25.2771 25.2881C25.2486 25.3765 25.2326 25.4449 25.2682 25.5332C25.302 25.6215 25.2967 25.6612 25.3412 25.7008C25.3857 25.7405 25.4035 25.7549 25.4481 25.7837C25.4926 25.8126 25.5745 25.8468 25.5549 25.9063C25.5353 25.9657 25.4196 26.1027 25.3608 26.1514C25.302 26.2 25.1328 26.2991 25.0153 26.3478C24.8978 26.3964 24.8693 26.4109 24.8016 26.4073C24.7339 26.4037 24.6698 26.3982 24.6306 26.3676C24.5914 26.337 24.5825 26.2685 24.5825 26.2685L24.4953 26.1405C24.4953 26.1405 24.3065 26.2595 24.2566 26.2775C24.2067 26.2955 24.1106 26.2973 24.1106 26.2973C24.1106 26.2973 23.6974 26.1604 23.5425 26.0126C23.3875 25.8648 23.2112 25.7279 23.1738 25.6396C23.1346 25.5513 22.9939 25.2665 22.9993 25.1079C23.0046 24.9494 23.0723 24.7529 23.1453 24.6556C23.2183 24.5565 23.286 24.5331 23.3198 24.4682C23.3537 24.4051 23.3679 24.3691 23.3537 24.3348C23.3394 24.3006 23.2949 24.2411 23.2949 24.2411C23.2949 24.2411 23.213 24.2609 23.2076 24.1925C23.2023 24.124 23.1987 23.9366 23.2076 23.8627C23.2165 23.7888 23.1934 23.7293 23.1685 23.7005C23.1435 23.6717 22.9601 23.5527 22.8176 23.6374C22.6769 23.7203 22.6288 23.7509 22.5558 23.7744C22.4828 23.7996 22.3279 23.8032 22.2833 23.769C22.2388 23.7347 22.075 23.5924 22.075 23.5924C22.075 23.5924 21.8328 23.1004 21.7686 23.0265C21.7063 22.9526 21.5549 22.6372 21.5549 22.6372C21.5549 22.6372 21.5211 22.3958 21.5638 22.3417C21.6066 22.2876 21.6262 22.2624 21.6992 22.2678C21.7722 22.2732 21.8648 22.2228 21.8648 22.2228C21.8648 22.2228 21.9966 22.1399 21.9574 22.0155C21.9182 21.893 21.8256 21.6569 21.8167 21.5884C21.8078 21.5199 21.8363 21.4893 21.8025 21.446C21.7686 21.401 21.7045 21.383 21.6564 21.3469C21.6084 21.3127 21.5834 21.2839 21.5104 21.2929C21.4374 21.3019 21.1952 21.4118 21.0776 21.4605C20.9601 21.5091 20.8782 21.5289 20.7767 21.5235C20.6751 21.5181 20.4169 21.3614 20.3635 21.2929C20.3101 21.2244 20.2281 21.1018 20.237 20.9234C20.2459 20.745 20.1747 20.2296 20.1355 20.1269C20.0963 20.0242 19.9307 19.8079 19.888 19.7286C19.8434 19.6493 19.7865 19.561 19.7865 19.561L19.6208 19.4727L19.2522 19.7232C19.2522 19.7232 18.8443 19.8422 18.7375 19.8512C18.6306 19.8602 18.5327 19.8458 18.5184 19.9143C18.5042 19.9827 18.4899 20.2242 18.4792 20.2585C18.4686 20.2927 18.4312 20.3612 18.4312 20.3612C18.4312 20.3612 18.1729 20.4693 18.0768 20.5144C17.9788 20.5594 17.7651 20.5828 17.7651 20.5828C17.7651 20.5828 17.3608 20.5882 17.2593 20.5882C17.1578 20.5882 16.8853 20.5288 16.8853 20.5288C16.8853 20.5288 16.6075 20.4261 16.5932 20.4008C16.579 20.3756 16.5879 20.3017 16.5879 20.3017L16.5968 20.1828C16.5968 20.1828 16.2424 19.7395 16.2175 19.7106C16.1925 19.6818 16.0999 19.6169 16.0625 19.6367C16.0233 19.6566 15.961 19.7358 15.9414 19.8133C15.9218 19.8926 15.9129 19.9755 15.9129 19.9755L15.9663 20.035C15.9663 20.035 15.9913 20.1035 15.9574 20.1377C15.9236 20.172 15.7829 20.2368 15.7241 20.2603C15.6654 20.2855 15.5389 20.3053 15.4766 20.3287C15.4142 20.354 15.3786 20.3738 15.359 20.3287C15.3394 20.2837 15.2237 19.9791 15.1792 19.9791C15.1346 19.9791 15.0776 19.9647 15.0776 19.9647C15.0776 19.9647 14.9031 19.7773 14.8639 19.6836C14.8248 19.5899 14.7909 19.2403 14.7963 19.1466C14.8016 19.0528 14.7713 18.9357 14.7713 18.9357C14.7713 18.9357 14.3724 18.8222 14.3101 18.7933C14.2477 18.7645 14.1106 18.6852 14.091 18.651C14.0714 18.6167 14.164 18.3897 14.2175 18.341C14.2709 18.2924 14.3528 18.2329 14.3528 18.2329L14.4116 18.0112C14.4116 18.0112 14.3332 17.7499 14.2994 17.676C14.2655 17.6021 14.1979 17.5193 14.1391 17.503C14.0803 17.4886 14.0518 17.494 14.0376 17.44C14.0233 17.3859 14.0465 17.3661 14.0572 17.321C14.0679 17.276 14.091 17.276 14.0661 17.2471C14.0411 17.2183 13.9735 17.1985 13.9735 17.1985C13.9735 17.1985 13.7936 17.1732 13.7063 17.1895C13.6191 17.2039 13.2682 17.3571 13.1418 17.3715C13.0153 17.3859 12.937 17.3715 12.8996 17.4165C12.8604 17.4616 12.7589 17.5985 12.725 17.6436C12.6912 17.6886 12.6805 17.7121 12.6235 17.7427C12.5647 17.7715 12.5647 17.7679 12.5309 17.7878C12.4971 17.8076 12.4525 17.7824 12.4632 17.8418C12.4721 17.9013 12.4721 17.9445 12.5167 17.9698C12.5612 17.995 12.5986 18.004 12.652 17.9896C12.7054 17.9752 12.7695 17.9409 12.7695 17.9409C12.7695 17.9409 12.8817 17.8526 12.9209 17.8923C12.9601 17.9319 12.9939 17.9554 13.0563 17.9752C13.1186 17.995 13.2451 18.004 13.2451 18.004C13.2451 18.004 13.4641 18.0184 13.5603 18.195C13.6565 18.3716 13.8915 18.6924 13.8915 18.8744C13.8915 19.0565 13.7704 19.3412 13.7402 19.4403C13.7117 19.5394 13.5549 19.7016 13.4677 19.7304C13.3804 19.7593 13.3501 19.7899 13.2397 19.7557C13.1293 19.7214 12.9672 19.707 12.9672 19.707C12.9672 19.707 12.8123 19.6872 12.7393 19.6872C12.6663 19.6872 12.652 19.6385 12.6128 19.7322C12.5736 19.826 12.6128 19.8458 12.5541 19.88C12.4953 19.9143 12.2762 19.9629 12.2086 19.9593C12.1409 19.9557 12.0625 19.9593 12.0625 19.9593C12.0625 19.9593 11.9646 19.9341 11.9646 19.9737C11.9646 20.0134 12.0037 20.0927 12.0037 20.0927C12.0037 20.0927 12.018 20.2008 12.0483 20.235C12.0785 20.2693 12.1462 20.2747 12.1462 20.2747C12.1462 20.2747 12.1516 20.2603 12.2584 20.226C12.3653 20.1918 12.3706 20.1323 12.4472 20.181C12.5256 20.2296 12.5487 20.2404 12.579 20.2999C12.6093 20.3594 12.6075 20.3882 12.6609 20.3828C12.7143 20.3774 12.7535 20.354 12.7535 20.354C12.7535 20.354 12.7927 20.2999 12.8711 20.3396C12.9494 20.3792 13.1525 20.4819 13.2255 20.581C13.2985 20.6802 13.327 20.7378 13.3038 20.7883C13.2789 20.8369 13.2219 20.8766 13.2362 20.9451C13.2504 21.0135 13.2985 21.064 13.2985 21.064L13.3519 21.1865C13.3519 21.1865 13.3466 21.3686 13.3466 21.4569C13.3466 21.5452 13.3323 21.7272 13.4196 21.8065C13.5069 21.8858 13.7063 22.0425 13.8274 22.057C13.9485 22.0714 14.1818 22.0912 14.2851 22.1597C14.3866 22.2282 14.5131 22.4012 14.5576 22.4552C14.6021 22.5093 14.6199 22.5345 14.6057 22.5778C14.5915 22.6228 14.5612 22.5922 14.5576 22.6607C14.5523 22.7292 14.5665 22.794 14.6253 22.8229C14.6841 22.8517 14.693 22.8769 14.7517 22.8571C14.8105 22.8373 14.8141 22.7688 14.8586 22.8229C14.9031 22.8769 14.9512 22.9508 14.9512 22.9508C14.9512 22.9508 15.0581 23.0247 15.0438 23.0643C15.0296 23.104 15.0189 23.1472 15.0189 23.1472C15.0189 23.1472 15.0438 23.241 15.1168 23.2752C15.1898 23.3094 15.2237 23.3202 15.2718 23.3941C15.3199 23.468 15.311 23.4969 15.3537 23.5023C15.3982 23.5077 15.4267 23.4932 15.4267 23.4932C15.4267 23.4932 15.4659 23.4536 15.4997 23.4932C15.5336 23.5329 15.5193 23.5924 15.5977 23.6843C15.676 23.778 15.7633 23.8861 15.8363 23.9258C15.9093 23.9654 15.9628 23.9942 15.9628 23.9942C15.9628 23.9942 16.0643 24.097 16.0839 24.1672C16.1035 24.2357 16.1426 24.3006 16.1426 24.3006C16.1426 24.3006 16.2638 24.4376 16.3029 24.488C16.3421 24.5367 16.3849 24.5709 16.3849 24.5709C16.3849 24.5709 16.4436 24.5655 16.4632 24.5457C16.4828 24.5259 16.4044 24.506 16.5113 24.5006C16.6182 24.4952 16.7393 24.515 16.8265 24.5259C16.9138 24.5349 16.9868 24.5204 16.9868 24.5204C16.9868 24.5204 17.0491 24.5204 17.1186 24.4754C17.1863 24.4303 17.2451 24.4412 17.3234 24.4213C17.4018 24.4015 17.5656 24.3474 17.7081 24.4556C17.8488 24.5637 17.961 24.6862 17.9752 24.7655C17.9895 24.8448 17.9361 24.8647 17.961 24.9475C17.9859 25.0304 17.9699 25.0268 18.0091 25.0665C18.0483 25.1061 18.0572 25.135 18.0572 25.135L18.0625 25.2341L18.1836 25.317C18.1836 25.317 18.636 25.5729 18.7713 25.6612C18.9067 25.7495 18.8978 25.7495 18.9601 25.8432C19.0224 25.9369 19.0189 25.9856 19.0616 26.0703C19.1061 26.1532 19.1097 26.1892 19.1097 26.2234C19.1097 26.2577 19.1293 26.2865 19.0652 26.3027C19.0028 26.3172 19.0171 26.2937 18.9779 26.3172C18.9387 26.3406 18.896 26.3316 18.9156 26.3802C18.9352 26.4289 18.969 26.4739 18.9405 26.4829C18.912 26.492 18.8675 26.4685 18.8675 26.4685L18.8087 26.4397L18.741 26.4451L18.766 26.5442C18.766 26.5442 18.8052 26.5929 18.7909 26.6325C18.7767 26.6722 18.7286 26.6722 18.782 26.692C18.8354 26.7118 18.8497 26.6974 18.8995 26.7316C18.9476 26.7659 18.9868 26.8398 18.9922 26.8884C18.9975 26.9371 19.0313 26.9875 19.0545 27.011C19.0776 27.0344 19.4142 27.3498 19.4819 27.42C19.5496 27.4885 19.7099 27.6759 19.7829 27.7841C19.8559 27.8922 19.9093 27.9661 19.9093 28.0111C19.9093 28.0562 19.8755 28.1139 19.8755 28.1139C19.8755 28.1139 20.1426 28.5031 20.2299 28.6004C20.3172 28.6995 20.351 28.7374 20.3279 28.7824C20.3029 28.8275 20.3136 28.8221 20.2068 28.905C20.0999 28.9879 20.1248 28.9789 20.0661 29.0131C20.0073 29.0474 19.9788 29.0762 19.9485 29.0221C19.92 28.9681 19.7686 28.8347 19.7206 28.732C19.6725 28.6293 19.619 28.5301 19.619 28.5301C19.619 28.5301 19.628 28.4761 19.571 28.4707C19.5122 28.4653 19.4979 28.4761 19.4694 28.4256C19.441 28.377 19.4694 28.3319 19.4694 28.3319L19.5621 28.2526L19.5816 28.1301C19.5816 28.1301 19.3234 27.9084 19.2468 27.8688C19.1685 27.8291 18.9939 27.7462 18.9263 27.7949C18.8586 27.8435 18.6645 27.9571 18.6253 28.0165C18.5861 28.076 18.5469 28.1355 18.5665 28.2328C18.5861 28.3319 18.5416 28.3463 18.6288 28.4599C18.7161 28.5734 18.7215 28.5788 18.7499 28.6707C18.7784 28.7644 18.8176 28.8239 18.8568 28.8816C18.896 28.941 18.8621 28.9645 18.9298 29.0347C18.9975 29.1032 19.115 29.2258 19.115 29.2258C19.115 29.2258 19.2076 29.3087 19.27 29.3591C19.3323 29.4078 19.3323 29.4186 19.3822 29.4132C19.432 29.4078 19.4356 29.388 19.4748 29.4276C19.514 29.4672 19.5674 29.5646 19.6297 29.6006C19.6921 29.6348 19.7366 29.6348 19.7419 29.7033C19.7473 29.7718 19.6974 29.806 19.7366 29.8601C19.7758 29.9142 19.7562 29.9196 19.7989 29.934C19.8434 29.9484 19.8915 29.9196 19.8915 29.9196C19.8915 29.9196 19.8969 29.8799 19.9361 29.9106C19.9752 29.9394 20.0144 29.9502 20.0144 29.9502C20.0144 29.9502 20.1017 29.9646 20.1266 29.9304C20.1515 29.8961 20.205 29.8565 20.205 29.8565C20.205 29.8565 20.3118 29.8367 20.3795 29.8853C20.4472 29.934 20.6324 30.0583 20.6912 30.0962C20.7499 30.1358 20.8034 30.2331 20.7642 30.3124C20.725 30.3917 20.7197 30.4061 20.6823 30.4458C20.6449 30.4854 20.595 30.4656 20.6146 30.5449C20.6342 30.6242 20.6342 30.6638 20.6734 30.7179C20.7125 30.772 20.7464 30.7774 20.7357 30.826C20.7268 30.8747 20.7268 30.9143 20.7268 30.9143C20.7268 30.9143 20.766 30.9053 20.8087 30.9432C20.8532 30.9828 20.9013 31.0567 20.9156 31.145C20.9298 31.2333 20.9209 31.2477 20.9601 31.282C20.9993 31.3162 21.0776 31.3306 21.0776 31.3306C21.0776 31.3306 21.1756 31.3018 21.2183 31.3793C21.2629 31.4586 21.2575 31.5162 21.2913 31.6063C21.3252 31.6947 21.3359 31.7794 21.4178 31.8136C21.4997 31.8478 21.6707 31.9325 21.6707 31.9325C21.6707 31.9325 21.7045 32.0695 21.7829 32.1398C21.8613 32.2083 21.8452 32.2389 21.9182 32.2587C21.9913 32.2785 22.0002 32.2875 22.0358 32.2875C22.0714 32.2875 22.1035 32.293 22.1035 32.293C22.1035 32.293 22.1854 32.3524 22.2103 32.4155C22.2352 32.4786 22.2246 32.529 22.2246 32.529C22.2246 32.529 22.1622 32.5579 22.1907 32.5975C22.2192 32.6372 22.2352 32.6317 22.2584 32.6426C22.2816 32.6534 22.3065 32.648 22.3207 32.657C22.335 32.666 22.3795 32.6624 22.3742 32.6966C22.3688 32.7309 22.3118 32.7417 22.3118 32.7651C22.3118 32.7885 22.3065 32.7903 22.351 32.8102C22.3955 32.83 22.4044 32.8354 22.4329 32.83C22.4614 32.8246 22.5202 32.821 22.5344 32.8931C22.5487 32.9669 22.554 33.0408 22.554 33.1039C22.554 33.167 22.5825 33.2319 22.6609 33.2571C22.7393 33.2823 22.8889 33.3454 22.9672 33.4301C23.0456 33.513 23.2005 33.6914 23.2148 33.7797C23.229 33.868 23.2344 33.9671 23.2148 34.0302C23.1952 34.0933 23.1756 34.1131 23.1756 34.1527C23.1756 34.1924 23.2094 34.2212 23.2094 34.2212L23.2183 34.2807C23.2183 34.2807 23.1702 34.2951 23.1506 34.3257C23.1311 34.3546 23.0972 34.351 23.1417 34.3852C23.1863 34.4194 23.2735 34.4393 23.3466 34.4789C23.4196 34.5186 23.4641 34.524 23.4641 34.524C23.4641 34.524 23.5033 34.5492 23.4979 34.6231C23.4926 34.697 23.4694 34.7222 23.4783 34.751C23.4872 34.7799 23.5122 34.8249 23.5656 34.8195C23.619 34.8141 23.6475 34.7997 23.6671 34.7907C23.6867 34.7817 23.7205 34.742 23.7651 34.7618C23.8096 34.7817 23.8826 34.8105 23.8862 34.8556C23.8915 34.9006 23.8719 34.9186 23.8951 34.924C23.9182 34.9294 23.9539 34.924 23.9539 34.924L24.0126 34.915C24.0126 34.915 24.0518 34.9348 24.1052 34.9637C24.1587 34.9925 24.1978 35.0177 24.2317 34.9835C24.2655 34.9493 24.465 34.6825 24.4703 34.5744C24.4757 34.4663 24.4757 34.3185 24.5042 34.2591C24.5327 34.1996 24.611 34.0572 24.6591 34.0626C24.7072 34.068 24.7856 34.0572 24.7856 34.0572C24.7856 34.0572 24.8051 33.713 24.8194 33.6535C24.8336 33.5941 24.9209 33.3184 24.9369 33.2949C24.9512 33.2697 24.9619 33.212 24.9993 33.2264C25.0367 33.2409 25.0723 33.2517 25.0723 33.2517C25.0723 33.2517 25.1542 33.2769 25.1649 33.212C25.1756 33.1472 25.1791 32.839 25.2628 32.7885C25.3448 32.7399 25.7295 32.6263 25.7971 32.6155C25.8648 32.6065 25.8951 32.5759 25.9628 32.6245C26.0304 32.6732 26.1765 32.8804 26.2637 32.9597C26.351 33.039 26.4151 33.0967 26.4151 33.0967C26.4151 33.0967 26.5327 33.1958 26.5327 33.2535C26.5327 33.3111 26.5184 33.4553 26.6003 33.5292C26.6823 33.6031 26.839 33.7851 26.8924 33.8644C26.9458 33.9437 26.9654 33.9239 26.9601 34.0014C26.9547 34.0806 26.9316 34.0752 26.9993 34.1437C27.0669 34.2122 27.0776 34.2032 27.1346 34.2518C27.1934 34.3005 27.2272 34.3149 27.2272 34.3149C27.2272 34.3149 27.3002 34.3401 27.3252 34.2807C27.3501 34.2212 27.3341 34.1275 27.3341 34.1275C27.3341 34.1275 27.3145 34.0879 27.3626 34.068C27.4107 34.0482 27.4445 34.005 27.4445 34.005C27.4445 34.005 27.5033 33.8626 27.5033 33.7094C27.5033 33.5562 27.4944 33.522 27.4979 33.4445C27.5033 33.3652 27.4926 33.3652 27.5175 33.2823C27.5424 33.1994 27.5318 33.1544 27.5798 33.1201C27.6279 33.0859 27.7063 33.0516 27.7508 33.057C27.7953 33.0625 27.8826 33.0769 27.9058 33.1454C27.9307 33.2138 27.9343 33.2192 27.9681 33.2931C28.0019 33.367 28.0749 33.3958 28.0749 33.3958C28.0749 33.3958 28.2014 33.4247 28.2602 33.4409C28.3189 33.4553 28.4115 33.4661 28.4062 33.4157C28.4009 33.367 28.3474 32.9183 28.3581 32.7867C28.367 32.6534 28.5042 32.2155 28.611 32.138C28.7179 32.0587 29.1898 31.7884 29.3839 31.7145C29.5781 31.6406 29.8701 31.5325 30.0554 31.5325C30.2406 31.5325 30.3866 31.6063 30.44 31.6947C30.4935 31.783 30.5326 31.8568 30.5273 31.9109C30.522 31.965 30.4881 31.9794 30.5131 32.0136C30.538 32.0479 30.5469 32.0389 30.5718 32.0677C30.5968 32.0965 30.6306 32.1073 30.6164 32.1668C30.6021 32.2263 30.5772 32.2155 30.5772 32.2497C30.5772 32.2839 30.5576 32.2749 30.5968 32.3038C30.6359 32.3326 30.7036 32.3975 30.7481 32.3777C30.7927 32.3578 30.8657 32.2948 30.928 32.2695C30.9903 32.2443 31.026 32.2497 31.0741 32.2065C31.1221 32.1632 31.1328 32.1127 31.1756 32.138C31.2201 32.1632 31.302 32.1974 31.2967 32.2659C31.2913 32.3344 31.2575 32.3939 31.2575 32.3939C31.2575 32.3939 31.2379 32.7237 31.2664 32.8066C31.2949 32.8895 31.2806 32.9255 31.3145 32.9741C31.3483 33.0228 31.3483 33.057 31.3875 33.048C31.4267 33.039 31.4071 33.0138 31.4463 33.0192C31.4855 33.0246 31.5816 33.0985 31.6315 33.1868C31.6796 33.2751 31.7134 33.349 31.733 33.3688C31.7526 33.3886 31.8007 33.3976 31.8007 33.3976C31.8007 33.3976 31.9467 33.3886 31.9521 33.4607C31.9574 33.5346 31.9467 33.5544 31.9432 33.6031C31.9378 33.6517 31.9627 33.6824 31.9627 33.6824C31.9627 33.6824 31.9716 33.7653 32.0162 33.7166C32.0607 33.668 32.0696 33.6283 32.1284 33.6031C32.1871 33.5779 32.2103 33.5833 32.2691 33.5688C32.3278 33.5544 32.3617 33.54 32.3813 33.5058C32.4009 33.4715 32.3902 33.4427 32.4436 33.4427C32.497 33.4427 32.5362 33.4373 32.5362 33.4373C32.5362 33.4373 32.57 33.3976 32.5843 33.3922C32.5985 33.3868 32.6039 33.3832 32.6431 33.3832C32.6822 33.3832 32.8229 33.3093 32.896 33.2463C32.969 33.1832 33.0224 33.1832 32.9939 33.1381C32.9654 33.0931 32.912 33.0588 32.912 33.0588C32.912 33.0588 32.8675 33.0246 32.9066 32.9705C32.9458 32.9165 32.9601 32.8768 33.0277 32.8624C33.0954 32.848 33.1684 32.857 33.1488 32.7831C33.1293 32.7092 33.0366 32.5561 33.0313 32.4281C33.026 32.3002 32.9868 31.8965 32.9868 31.7595C32.9868 31.6226 32.9725 31.6604 32.9529 31.5919C32.9334 31.5235 32.928 31.5036 32.9476 31.455C32.9672 31.4063 32.9565 31.3072 33.0598 31.327C33.1613 31.3468 33.2486 31.3559 33.2343 31.3216C33.2201 31.2874 33.1898 31.2477 33.1898 31.2477C33.1898 31.2477 33.1417 31.1847 33.1506 31.1288C33.1595 31.0747 33.1453 31.0693 33.1845 31.0297C33.2236 30.99 33.229 30.927 33.229 30.927C33.229 30.927 33.1845 30.7251 33.1667 30.6855C33.1471 30.6458 33.1186 30.5773 33.1613 30.5377C33.2058 30.4981 33.4961 30.2277 33.7544 30.0908C34.0126 29.9538 34.2744 29.7754 34.5415 29.7322C34.8087 29.6871 35.0277 29.6096 35.1934 29.5754C35.359 29.5411 35.5816 29.4672 35.6653 29.3934C35.7472 29.3195 35.7241 29.3051 35.8398 29.26C35.9556 29.2149 36.034 29.1717 36.034 29.1717L36.107 29.0582C36.107 29.0582 36.2869 28.7626 36.5006 28.6347C36.7143 28.5067 36.8692 28.3103 36.9779 28.3193C37.0847 28.3283 37.2646 28.3103 37.4053 28.2598C37.546 28.2112 37.6243 28.1913 37.6243 28.1913C37.6243 28.1913 37.8096 28.1661 37.8968 28.2364C37.9841 28.3049 38.2815 28.6743 38.3385 28.7626C38.3973 28.8509 38.4258 28.8509 38.4204 28.9645C38.4151 29.078 38.4062 29.078 38.4151 29.1519C38.424 29.2258 38.424 29.2456 38.4828 29.2798C38.5415 29.3141 38.5558 29.3141 38.595 29.3051C38.6341 29.296 38.6626 29.2312 38.6769 29.2708C38.6911 29.3105 38.7357 29.3393 38.7357 29.3393L38.8764 29.3339C38.8764 29.3339 38.9975 29.2204 39.0812 29.1176C39.1631 29.0149 39.1684 29.0041 39.1738 28.9068C39.1791 28.8077 39.0918 28.1643 39.0918 27.9336C39.0918 27.703 38.9992 27.2344 38.985 27.1461C38.9707 27.0578 38.9316 27.0632 38.9654 26.9893C38.9992 26.9155 39.0527 26.8416 39.0527 26.8416C39.0527 26.8416 39.2379 26.6001 39.3305 26.5803C39.4231 26.5604 39.5638 26.501 39.5549 26.4379C39.546 26.3748 39.5745 26.0793 39.676 25.9657C39.7775 25.8522 39.8416 25.8288 39.8612 25.7693C39.8808 25.7098 39.9342 25.6215 39.8701 25.5332C39.8078 25.4449 39.6991 25.3855 39.6902 25.3026C39.6813 25.2197 39.6083 24.9475 39.7152 24.8106C39.822 24.6736 39.9235 24.5493 39.9485 24.5096C39.9734 24.47 39.993 24.4808 39.9877 24.4105C39.9823 24.3402 40.0268 24.0321 39.9734 23.9978C39.92 23.9636 39.9057 24.0321 39.895 23.9582C39.8861 23.8843 39.8755 23.7275 39.8755 23.7275C39.8755 23.7275 39.8808 23.6482 39.8505 23.605C39.822 23.5599 39.7437 23.5167 39.6956 23.5707C39.6475 23.6248 39.6083 23.7275 39.5549 23.8465C39.5015 23.9654 38.9672 24.5403 38.8265 24.5997C38.6858 24.6592 38.6662 24.6394 38.5985 24.6989C38.5308 24.7583 38.481 24.7727 38.481 24.7727L38.3884 24.7637C38.3884 24.7637 38.2566 24.8034 38.2566 24.8773C38.2566 24.9512 38.3243 25.0791 38.3296 25.1674C38.3349 25.2557 38.3385 25.344 38.3011 25.3837C38.2619 25.4233 38.1266 25.4287 38.0286 25.4287C37.9307 25.4287 37.7811 25.4341 37.7081 25.4089C37.635 25.3837 37.5086 25.2954 37.4605 25.2359C37.4124 25.1764 37.3056 24.9998 37.3536 24.9007C37.4017 24.8016 37.6154 24.3943 37.6315 24.3096C37.6457 24.2267 37.66 23.9167 37.6457 23.8266C37.6315 23.7383 37.5923 23.7131 37.5976 23.605C37.603 23.4969 37.5834 23.4518 37.5104 23.3347C37.4374 23.2157 37.3839 23.1977 37.3305 23.1526C37.2771 23.1076 37.2628 23.0698 37.1702 23.0734C37.0776 23.0788 36.8016 23.1815 36.757 23.2067C36.7125 23.2319 36.6591 23.2211 36.6395 23.2896C36.6199 23.3581 36.6146 23.4085 36.6484 23.477C36.6822 23.5455 36.7499 23.7131 36.7161 23.7618C36.6822 23.8104 36.5843 23.9528 36.5843 23.9528C36.5843 23.9528 36.497 24.0411 36.424 24.115C36.351 24.1889 36.3652 24.1979 36.2975 24.2483C36.2299 24.297 36.2049 24.3474 36.196 24.3709C36.1871 24.3961 36.2014 24.4538 36.2014 24.4538C36.2014 24.4538 36.2691 24.5168 36.2993 24.5475C36.3278 24.5763 36.3617 24.616 36.3617 24.616C36.3617 24.616 36.44 24.679 36.3866 24.7151C36.3332 24.7511 36.221 24.8034 36.221 24.8034L36.139 24.8629L36.0856 25.0503C36.0856 25.0503 36.091 25.1296 36.0411 25.2233C35.993 25.317 35.92 25.3801 35.92 25.3801L35.7259 25.3945C35.7259 25.3945 35.5175 25.3314 35.4641 25.2467C35.4106 25.1638 35.2023 24.9313 35.1667 24.7944C35.1328 24.6574 35.1577 24.3763 35.1613 24.3078C35.1667 24.2393 35.1667 24.1204 35.1667 24.1204C35.1667 24.1204 35.6244 24.4592 35.7116 24.5132C35.7989 24.5673 35.9164 24.5961 35.9894 24.607C36.0625 24.616 36.107 24.6124 36.1248 24.5871C36.1444 24.5619 36.2317 24.4339 36.0999 24.3997C35.9681 24.3655 35.7401 24.3547 35.6618 24.2808C35.5834 24.2069 35.4035 24.0897 35.3412 23.9708C35.2789 23.8519 35.156 23.3995 35.1168 23.3022C35.0776 23.2031 34.9618 22.8841 34.8496 22.8589C34.7374 22.8337 34.5878 22.8102 34.5291 22.8589V22.8643Z" fill="#000091"/>
<path d="M36.9637 20.0404C36.9494 20.0314 36.7838 20.0404 36.7215 20.0999C36.6591 20.1593 36.4401 20.4242 36.3902 20.5126C36.3421 20.6009 36.3172 20.7 36.3172 20.763C36.3172 20.8261 36.3314 20.8315 36.3368 20.8856C36.3421 20.9397 36.3314 20.9685 36.3706 20.9883C36.4098 21.0081 36.3902 21.0478 36.4525 20.9973C36.5149 20.9487 36.5647 20.909 36.5647 20.909C36.5647 20.909 36.6769 20.8459 36.6965 20.8694C36.7161 20.8946 36.725 20.909 36.7589 20.8982C36.7927 20.8892 36.8319 20.8784 36.8319 20.8784L36.8764 20.8838C36.8764 20.8838 36.9298 20.909 36.9548 20.8982C36.9797 20.8892 37.0171 20.8586 37.0171 20.8586C37.0171 20.8586 37.1044 20.7703 37.1631 20.7757C37.2219 20.7811 37.27 20.7667 37.27 20.7667C37.27 20.7667 37.2789 20.7378 37.2949 20.7324C37.3092 20.727 37.3679 20.6928 37.4125 20.718C37.457 20.7432 37.457 20.7865 37.4944 20.7721C37.5336 20.7576 37.5727 20.7234 37.5425 20.6838C37.514 20.6441 37.4499 20.5756 37.4641 20.527C37.4783 20.4783 37.4837 20.4044 37.4837 20.4044C37.4837 20.4044 37.4107 20.399 37.3911 20.3702C37.3715 20.3414 37.3377 20.2621 37.3323 20.2332C37.327 20.2044 37.3519 20.2188 37.3323 20.1539C37.3127 20.0909 37.2735 20.0404 37.2735 20.0404C37.2735 20.0404 37.2255 20.0116 37.1863 20.0404C37.1471 20.0692 37.1186 20.0891 37.0937 20.0746C37.0687 20.0602 37.0349 20.0296 37.0349 20.0296L36.9619 20.0386L36.9637 20.0404Z" fill="#000091"/>
<path d="M30.4205 11.284C30.4205 11.284 30.3386 11.2588 30.2994 11.3039C30.2603 11.3489 30.2015 11.4318 30.2015 11.4318C30.2015 11.4318 30.1534 11.4949 30.1196 11.5399C30.0857 11.585 30.0608 11.6426 30.0608 11.6426L30.1231 11.7057C30.1231 11.7057 30.0946 11.7508 30.132 11.7688C30.1712 11.7886 30.2193 11.7832 30.2193 11.7832C30.2193 11.7832 30.2478 11.7832 30.287 11.7886C30.3261 11.794 30.3689 11.8283 30.3938 11.7742C30.4188 11.7201 30.433 11.6859 30.4419 11.612C30.4508 11.5381 30.4419 11.5291 30.433 11.4696C30.4241 11.4102 30.4188 11.2822 30.4188 11.2822L30.4205 11.284Z" fill="#000091"/>
<path d="M30.6788 12.149C30.6735 12.1345 30.5186 11.9868 30.499 11.967C30.4794 11.9471 30.3868 11.9381 30.3868 11.9381L30.2122 11.9976L30.1054 12.0372C30.1054 12.0372 30.027 12.0426 30.0466 12.0769C30.0662 12.1111 30.0751 12.1165 30.0947 12.1562C30.1143 12.1958 30.2158 12.2697 30.1 12.2445C29.9843 12.2192 29.9398 12.2301 29.9398 12.2697C29.9398 12.3094 29.9789 12.3977 29.9789 12.3977L30.0573 12.4031C30.0573 12.4031 30.1054 12.3778 30.1446 12.4085C30.1837 12.4373 30.2461 12.4769 30.2461 12.4769L30.328 12.5454L30.4153 12.5797L30.4972 12.5653C30.4972 12.5653 30.5453 12.5058 30.5791 12.4968C30.613 12.4878 30.6325 12.4914 30.6468 12.4715C30.661 12.4517 30.7091 12.4175 30.6717 12.3832C30.6325 12.349 30.5898 12.3292 30.613 12.3039C30.6379 12.2787 30.6414 12.2895 30.6753 12.2553C30.7091 12.221 30.6753 12.1526 30.6753 12.1526L30.6788 12.149Z" fill="#000091"/>
<path d="M25.3217 12.9077C25.3021 12.9366 25.2629 13.0068 25.1757 13.0988C25.0884 13.1925 25.1169 13.1618 25.0403 13.2465C24.962 13.3294 24.9139 13.3492 24.9139 13.3492C24.9139 13.3492 24.7963 13.4321 24.7536 13.3745C24.7091 13.315 24.7197 13.3204 24.6717 13.2609C24.6236 13.2015 24.5452 13.1871 24.5452 13.1871L24.4099 13.2411C24.4099 13.2411 24.3849 13.3294 24.3119 13.4087C24.2389 13.488 24.2051 13.5222 24.2051 13.5222C24.2051 13.5222 24.1178 13.5961 24.0786 13.6304C24.0394 13.6646 24.084 13.7727 24.0537 13.8322C24.0252 13.8917 23.9753 13.9205 24.0198 13.9746C24.0644 14.0286 24.0786 14.0485 24.0982 14.0971C24.1178 14.1458 24.132 14.1512 24.1231 14.1854C24.1142 14.2197 24.1035 14.2341 24.1481 14.2683C24.1926 14.3026 24.23 14.3368 24.2656 14.3512C24.2994 14.3656 24.3386 14.3855 24.3921 14.3368C24.4455 14.2881 24.547 14.1692 24.547 14.1692C24.547 14.1692 24.5951 14.1061 24.6396 14.0268C24.6841 13.9475 24.6788 13.9133 24.7269 13.8592C24.775 13.8052 24.8783 13.7169 24.8783 13.7169L24.9655 13.6538C24.9655 13.6538 25.0777 13.5204 25.1365 13.5853C25.1953 13.6502 25.2772 13.6592 25.3644 13.5997C25.4517 13.5403 25.5051 13.5313 25.5354 13.4808C25.5639 13.4321 25.6423 13.3528 25.6423 13.3528C25.6423 13.3528 25.8079 13.2195 25.8845 13.2591C25.9628 13.2988 26.0359 13.3222 26.0359 13.3222L26.1338 13.3024C26.1338 13.3024 26.2264 13.342 26.2514 13.3565C26.2763 13.3709 26.3244 13.3565 26.3244 13.3565L26.3974 13.2285C26.3974 13.2285 26.4419 13.1546 26.4223 13.106C26.4027 13.0573 26.3778 13.0068 26.3689 12.9726C26.36 12.9384 26.36 12.9185 26.3831 12.9041C26.4063 12.8897 26.4312 12.8753 26.4366 12.8501C26.4419 12.8248 26.4562 12.7564 26.4223 12.7419C26.3885 12.7275 26.2763 12.6969 26.214 12.7275C26.1516 12.7564 26.0929 12.7906 26.0929 12.7906L25.9611 12.8248L25.8738 12.7311L25.8204 12.6482C25.8204 12.6482 25.7723 12.6284 25.7278 12.6933C25.6832 12.7564 25.6654 12.796 25.6102 12.8266C25.5568 12.8555 25.5514 12.8519 25.4927 12.8555C25.4339 12.8609 25.3271 12.9041 25.3271 12.9041L25.3217 12.9077Z" fill="#000091"/>
<path d="M20.319 14.526C20.3137 14.5116 20.1979 14.3927 20.1587 14.3782C20.1195 14.3638 19.9931 14.344 19.9343 14.3981C19.8755 14.4521 19.8168 14.535 19.8168 14.535C19.8168 14.535 19.8257 14.708 19.7384 14.6972C19.6511 14.6882 19.5977 14.6918 19.5977 14.6918L19.5496 14.7459L19.482 14.8144L19.3804 14.8089C19.3804 14.8089 19.2736 14.8089 19.1721 14.863C19.0706 14.9171 18.9584 14.9819 18.9584 14.9819L18.9192 15.0648L18.8604 15.1838C18.8604 15.1838 18.7251 15.2721 18.636 15.3171C18.5487 15.3622 18.4704 15.4109 18.4704 15.4109L18.3724 15.4703C18.3724 15.4703 18.3475 15.874 18.3332 16.0073C18.319 16.1407 18.3083 16.229 18.2941 16.3029C18.2798 16.3768 18.2656 16.4399 18.2656 16.4399L18.3047 16.5426L18.3724 16.6111C18.3724 16.6111 18.3386 16.6741 18.3867 16.6903C18.4348 16.7048 18.4793 16.6759 18.4793 16.6759H18.5416C18.5416 16.6759 18.5861 16.7012 18.7072 16.7552C18.8283 16.8093 18.921 16.8237 18.921 16.8237C18.921 16.8237 19.1596 16.7985 19.2326 16.7498C19.3056 16.7012 19.311 16.7048 19.3448 16.6507C19.3787 16.5966 19.3698 16.5912 19.4321 16.5678C19.4944 16.5426 19.5389 16.5336 19.5532 16.5047C19.5674 16.4759 19.5478 16.4453 19.5977 16.4254C19.6458 16.4056 19.6796 16.4002 19.7918 16.4002C19.904 16.4002 20.0198 16.4002 20.0697 16.3407C20.1195 16.2813 20.1516 16.2272 20.1908 16.1677C20.2299 16.1083 20.3172 15.9767 20.4045 15.9263C20.4917 15.8776 20.5754 15.8578 20.5986 15.7533C20.6235 15.6505 20.6324 15.4577 20.6324 15.4577C20.6324 15.4577 20.652 15.4036 20.7197 15.3442C20.7874 15.2847 20.9049 15.063 20.9192 14.9892C20.9334 14.9153 20.9103 14.7873 20.9441 14.7242C20.9779 14.6612 20.9886 14.6612 20.9833 14.5963C20.9779 14.5314 20.9548 14.5332 20.9209 14.4828C20.8871 14.4341 20.8533 14.3999 20.7945 14.3999C20.7357 14.3999 20.677 14.3909 20.6146 14.4287C20.5523 14.4683 20.5861 14.4539 20.5131 14.4882C20.4401 14.5224 20.319 14.5224 20.319 14.5224V14.526Z" fill="#000091"/>
<path d="M2.40995 7.71762C2.40995 7.71762 2.2746 7.85098 2.23898 7.89964C2.20514 7.94829 2.15171 8.05642 2.15171 8.05642L2.14281 8.17896L2.16774 8.39522C2.16774 8.39522 2.19268 8.47451 2.15884 8.53218C2.125 8.59165 2.03773 8.7196 2.03773 8.7196C2.03773 8.7196 1.95581 8.75924 1.93978 8.8079C1.92554 8.85656 1.88101 8.96469 1.89526 9.04938C1.90951 9.13228 1.9006 9.15751 1.97362 9.22599C2.04664 9.29447 2.09472 9.33412 2.1535 9.36295C2.21227 9.39179 2.24076 9.41701 2.28528 9.41701C2.32981 9.41701 2.31378 9.37737 2.36365 9.39719C2.41351 9.41702 2.41707 9.42603 2.45626 9.44585C2.49544 9.46567 2.50968 9.50892 2.55421 9.47108C2.59873 9.43323 2.74299 9.29447 2.74299 9.19536C2.74299 9.09624 2.7234 8.95928 2.69846 8.87638C2.67353 8.79348 2.65928 8.68536 2.65038 8.64031C2.64147 8.59525 2.58804 8.43847 2.64147 8.43306C2.6949 8.42766 2.74299 8.38801 2.74299 8.38801L2.83025 8.27448L2.90327 8.18617C2.90327 8.18617 2.99054 8.08706 3.03506 8.10328C3.07958 8.1195 3.16685 8.11769 3.26302 8.12851C3.36097 8.13752 3.43755 8.14833 3.50523 8.1231C3.5729 8.09787 3.62277 8.08345 3.64592 8.06904C3.67086 8.05462 3.69045 8.07444 3.72428 8.06904C3.75812 8.06363 3.77771 8.04381 3.78662 8.02398C3.79552 8.00416 3.8347 7.96451 3.8347 7.96451L3.89704 7.88162L3.88279 7.81854C3.88279 7.81854 3.87388 7.70501 3.88279 7.66536C3.89169 7.62572 3.89169 7.59148 3.96471 7.55724C4.03773 7.523 4.07691 7.523 4.0965 7.48335C4.11609 7.4437 4.17842 7.24187 4.14459 7.16798C4.11075 7.09409 4.04663 7.06526 4.04663 7.06526C4.04663 7.06526 3.91485 7.09409 3.92019 7.05084C3.92553 7.00759 3.93978 6.96254 3.93978 6.96254C3.93978 6.96254 3.8721 6.80936 3.81867 6.80035C3.76525 6.79134 3.69757 6.80936 3.55688 6.80035C3.41618 6.79134 3.24165 6.79134 3.14904 6.74629C3.05643 6.70123 2.8908 6.60933 2.84806 6.57869C2.80354 6.54986 2.65394 6.44533 2.6201 6.47597C2.58626 6.5048 2.54708 6.55526 2.52749 6.53003C2.5079 6.5048 2.51325 6.49579 2.48831 6.46696C2.46338 6.43813 2.40995 6.40389 2.40995 6.40389L2.32268 6.46336L2.25501 6.503C2.25501 6.503 2.14281 6.36604 2.09472 6.31558C2.04664 6.26693 2.02171 6.26693 1.97718 6.26693C1.93266 6.26693 1.88457 6.23269 1.88457 6.23269C1.88457 6.23269 1.85074 6.18763 1.85608 6.16421C1.86142 6.14078 1.83649 6.09573 1.83649 6.09573C1.83471 6.09392 1.78128 5.99481 1.71004 6.00021C1.63702 6.00562 1.52126 6.07951 1.4714 6.07951C1.42153 6.07951 1.39303 6.05428 1.39303 6.05428C1.39303 6.05428 1.34495 6.00562 1.31111 6.05428C1.27727 6.10293 1.30221 6.12816 1.26303 6.14799C1.22384 6.16781 1.15617 6.17682 1.15617 6.17682C1.15617 6.17682 1.10808 6.14799 1.08315 6.15159C1.05822 6.157 1.05466 6.15159 1.03506 6.18583C1.01547 6.22007 0.976294 6.2453 0.947799 6.2453C0.919304 6.2453 0.919304 6.23629 0.913961 6.21106C0.908618 6.18583 0.922866 6.13717 0.889028 6.13177C0.85519 6.12636 0.661068 6.16601 0.616544 6.18042C0.572021 6.19484 0.47585 6.25431 0.47585 6.25431L0.436669 6.26873C0.436669 6.26873 0.368993 6.26873 0.335155 6.25972C0.301318 6.25071 0.262137 6.23989 0.26748 6.27413C0.272823 6.30837 0.292413 6.4165 0.292413 6.4165C0.292413 6.4165 0.171309 6.52463 0.112538 6.60752C0.0537669 6.69042 -0.0050041 6.73547 0.000338716 6.79494C0.00568154 6.85441 0.0591097 6.94272 0.0591097 6.94272C0.0591097 6.94272 0.0929476 6.97696 0.0840429 7.04544C0.0751382 7.11392 0.0787001 7.0995 0.0697954 7.15897C0.0608907 7.21844 0.0697954 7.20402 0.0840429 7.24187C0.0982904 7.27971 0.0893857 7.31035 0.146376 7.31035C0.203366 7.31035 0.238985 7.30494 0.28707 7.31035C0.335155 7.31575 0.331594 7.31575 0.360089 7.33558C0.388584 7.3554 0.466945 7.34459 0.466945 7.34459L0.539964 7.29954C0.539964 7.29954 0.598735 7.25088 0.641477 7.25989C0.68422 7.2689 0.759019 7.30494 0.840942 7.28872C0.922866 7.27431 1.06 7.24007 1.06 7.24007C1.06 7.24007 1.15795 7.17699 1.1811 7.14095C1.20604 7.10671 1.26303 7.05805 1.26303 7.05805L1.4714 7.03282C1.4714 7.03282 1.60318 6.98417 1.71004 7.03823C1.8169 7.09229 2.02527 7.15176 2.09472 7.21484C2.1624 7.27791 2.18199 7.30855 2.22117 7.29773C2.26035 7.28872 2.2461 7.24908 2.2835 7.26349C2.32268 7.27791 2.34584 7.29773 2.34584 7.29773C2.34584 7.29773 2.44735 7.42028 2.47763 7.47975C2.50612 7.53922 2.41886 7.67618 2.40995 7.71042V7.71762Z" fill="#000091"/>
</svg>
