<?xml version="1.0" ?>
<svg baseProfile="tiny" height="50" stroke-linecap="round" stroke-linejoin="round" version="1.2" viewBox="0 0 120 120" width="50" xmlns="http://www.w3.org/2000/svg">
	

	<g id="reg_guf" fill="#000091" stroke="white" stroke-width="1px">
		

		<path d="M 84.48 28.49 84.92 28.6 85.24 28.43 85.54 27.92 85.43 27.52 85.63 27.31 86.05 27.29 86.61 27.05 87.92 28.29 87.95 28.8 88.42 29.14 88.5 29.41 88.1 30.08 87.75 30.26 87.36 30.2 87.1 30.36 86.71 31.16 87.15 31.36 87.35 30.87 87.97 30.97 88.31 31.2 88.45 30.75 89.28 30.63 90.53 31.46 90.78 31.83 91 32.64 91.58 32.7 91.63 33.04 91.92 33.08 92.59 33.57 92.72 34.02 93.26 34.7 93.34 35.09 93.77 35.29 93.89 35.66 94.36 35.92 94.81 35.66 95.26 35.84 95.86 36.25 96.12 37.09 96.73 38.58 97.15 39.42 97.66 40.15 97.85 40.6 97.91 41.23 97.86 42.05 98.1 43.3 98.15 44.25 98.06 44.58 98.58 44.73 98.88 43.81 98.87 42.47 98.76 41.85 98.71 40.53 98.79 39 98.64 36.89 98.69 36.38 98.95 35.83 100.24 35.92 101.63 36.66 102.61 37.77 103 38.08 103.36 39.26 103.57 41.35 103.7 41.6 103.64 42.05 103.92 42.73 104.6 43.49 104.37 44.13 104.82 44.75 105.22 45.04 106.08 45.28 105.8 46.11 105.55 46.45 105.58 46.98 105.83 47.8 106.12 48.37 106.76 49.22 106.95 49.64 107.44 50.02 107.56 50.37 108.08 51 108.29 51.42 108.57 51.6 108.28 52.21 108.2 53.61 108.05 54.16 107.87 55.35 107.59 56.18 106.95 56.76 106.09 57.13 105.88 57.34 104.67 57.87 103.69 58.69 103.48 59.09 103.51 60.35 102.95 61.59 102.18 62.21 102.14 62.51 101.7 62.76 101.06 63.34 100.49 64.3 99.49 65.02 99.06 64.99 98.78 65.46 99.12 66.16 98.83 66.92 98.48 67.01 97.82 66.98 97.27 67.46 97.11 68.12 96.82 68.54 96.81 69.13 96.59 69.49 96.74 70.01 96.29 70.58 95.75 71.09 94.39 73.5 94.06 73.55 94.08 73.91 93.76 74.37 93.55 74.46 93.31 74.93 93.27 75.36 92.83 75.71 92.4 76.59 91.48 78.15 91.08 78.95 90.83 79.18 90.59 79.74 90.29 79.95 90.21 80.54 89.51 81.34 89.09 82.09 88.75 82.52 88.46 82.63 88.22 82.19 87.88 82.12 87.37 82.71 86.83 82.99 86.81 83.28 86.5 83.84 86.61 84.55 86.18 84.64 85.63 84.93 85.44 85.4 85.49 85.96 84.98 85.93 84.87 86.24 85.33 86.54 85.11 86.82 85.1 87.16 85.71 87.72 85.68 88.01 85.1 88.95 84.87 89.58 84.56 89.77 84.41 90.48 84.26 90.62 84.28 91.1 83.87 91.93 83.48 92.54 83.7 93 84.03 93.09 83.64 93.62 82.67 93.79 82.15 94.74 81.85 95.18 81.58 95.9 80.92 97 80.76 97.42 80.85 97.99 80.33 99.12 80.05 99.36 79.83 100.06 79.38 100.62 79.09 101.61 78.67 101.54 78.23 102 78.56 102.29 78.57 102.82 79 103.32 79.16 103.86 78.8 104.37 78.39 104.53 78.07 105.02 78.35 105.85 77.91 106 77.15 106.78 76.86 107.33 76.23 107.32 76.07 107.76 76.41 107.97 76.24 108.29 75.58 108.32 75.26 108.73 75.32 109.18 74.96 109.57 74.8 110.61 73.18 111.11 72.96 111.59 72.21 111.81 71.91 112.07 70.88 112.47 70.49 112.83 69.64 113.18 68.87 113.29 69 113.61 68.34 113.69 68.48 114.18 67.88 114.36 67.86 114.74 67.46 115.18 67.39 115.48 66.84 116.62 65.85 116.43 65.73 116.87 64.11 117.27 63.81 117 63.31 116.95 62.57 116.66 62.02 116.57 61.31 115.63 60.37 115.4 59 115.61 58.65 115.54 57.8 115.8 56.87 115.89 56.4 116.19 56.03 115.9 55.73 115.87 55.13 116.58 54.74 116.52 54.76 115.68 55.14 115.59 55.5 114.89 55.94 114.65 56.32 114.15 55.37 113.96 55.22 113.43 54.56 112.94 54.03 112.81 53.71 112.56 53.25 111.76 53.03 111.75 52.6 111.29 52.11 111.42 52 112.1 51.58 112.56 50.68 112.83 50.29 113.39 49.66 113.35 49.2 113.85 48.89 114.35 48.42 114.53 47.92 114.2 46.56 114.5 45.87 114.51 45.44 114.11 44.52 113.96 43.99 113.59 43.57 113.84 42.28 113.63 42.36 113.01 41.77 112.91 41.23 113.11 41.14 112.69 40.73 112.78 39.93 112.6 39.44 112.65 39.32 112.31 39.75 112.26 39.63 111.9 40.03 111.7 40.2 111.34 39.63 110.98 39.66 110.8 38.72 110.5 38.19 110.97 37.72 110.96 37.39 111.2 37.3 111.62 36.47 111.92 36.67 112.2 37.13 112.25 37.19 112.57 36.6 112.69 36.36 112.88 35.51 112.8 34.91 112.66 34.76 113.06 34.83 113.76 33.85 114.18 33.82 113.65 33.24 113.94 32.99 114.26 33.27 114.99 33 115.13 33.03 115.52 32.3 115.56 31.95 115.98 31.42 115.89 30.95 116.26 30.55 116.75 29.99 116.56 29.57 116.62 28.93 116.29 28.71 116.87 28.41 117.29 28.02 118.12 27.59 118.74 27.41 118.85 26.91 118.65 26.43 119 25.56 118.45 25.41 117.99 24.86 117.1 24.03 117.52 23.75 117.8 22.66 117.65 22.34 117.98 21.65 117.87 20.91 117.55 19.9 117.73 19.83 117.44 19.21 116.82 19.24 116.33 19.48 116.02 19.23 115.78 18.67 116.07 18.32 115.99 18.09 116.26 17.32 116.14 17.39 115.77 16.95 115.71 16.41 116.04 15.46 115.63 15.52 115.32 15.22 115.07 14.87 115.07 14.88 114.57 14.57 114.37 14 114.46 13.57 114.18 13.46 113.79 13.87 113.59 14.12 113.25 13.65 113.14 13.49 112.73 13.68 112.34 13.34 112.03 12.28 112.01 11.91 112.19 11.43 111.7 11.8 111.21 12.17 111.28 12.48 111.14 13.6 111.56 13.65 111.81 14.43 111.71 14.57 111.53 14.38 110.95 14.59 110.39 14.59 109.94 14.88 109.48 15.23 109.26 15.58 108.48 16.81 108.67 17.39 108.46 18.08 107.63 18.45 107.38 18.39 107.04 18.92 106.7 19.01 106.13 19.57 105.82 19.88 105.03 19.89 104.36 20.3 104.16 20.39 103.59 20.62 103.34 20.59 103.04 21.06 101.8 21.61 101.21 21.89 101.14 22.14 100.73 22.2 100.17 22.48 99.16 23.84 98.18 24.32 97.36 24.23 97.03 24.66 96.57 24.41 96.09 24.34 95.68 25.04 95.48 25.22 94.59 24.9 94.43 24.75 93.93 25.06 93.3 25.07 92.89 25.48 92.21 25.39 91.57 25.82 91.1 25.4 91 25.09 90.26 25.59 89.98 25.6 89.7 25.1 88.52 24.79 88.08 25.48 87.66 25.23 87.25 25.46 86.82 25.31 86.21 24.89 85.82 24.67 86.18 24.25 86.05 24.29 85.55 24.16 85.29 24.59 84.97 24.49 84.74 24.98 83.5 25.43 83.51 25.83 82.74 26.14 82.64 26.21 82.19 26.43 82.06 26.71 81.57 27.18 81.38 27.31 80.96 27.52 80.9 27.88 80.46 28.52 80.71 28.88 80.38 29.09 79.94 28.97 79.68 29.17 78.88 29.42 78.28 29.23 77.73 29.53 77.69 29.99 77.13 30.44 76.88 30.78 76.34 30.55 76.06 30.63 75.35 30.91 75.07 30.91 73.86 31.17 73.09 30.93 72.91 31.03 72.22 30.99 71.72 31.66 71.33 31.85 70.51 31.48 70.18 31.47 69.95 31.04 69.21 30.69 69.1 30.41 69.25 30.32 69.62 29.99 69.74 29.57 69.62 29.57 69.06 29.34 68.78 28.66 68.46 28.38 67.79 28.64 67.22 28.48 66.73 28.12 66.45 27.92 65.79 27.52 65.24 27.31 64.55 26.98 64.24 26.35 64.09 25.75 64.06 24.98 64.19 24.78 64 24.67 63.5 25.01 63.04 24.86 62.58 24.35 62.39 23.89 62.41 23.49 62.23 23.05 61.38 23.01 60.99 22.44 60.53 22.02 60.07 21.91 59.75 21.98 59.28 21.75 59.01 21.7 58.34 21.49 57.84 20.84 57.17 20.6 57.09 20.12 56.36 19.64 56.21 19.48 55.97 20.07 54.83 19.94 54.38 20.09 53.82 20.41 53.39 20.73 53.33 20.72 52.97 20.15 52.66 19.87 52.23 19.16 51.94 18.62 51.84 18.33 51.01 18.48 50.61 18.63 49.63 18.81 49.18 18.54 48.59 18.42 47.8 18.53 46.89 18.71 46.35 18.41 45.86 17.99 45.68 17.68 45.78 17.36 45.58 17.47 45.21 17.34 44.89 17.36 44.27 17.17 44.12 16.91 43.58 17.23 42.64 16.9 42.18 16.97 41.52 16.66 40.63 17.01 40.08 17.62 39.93 17.91 38.95 17.74 38.7 17.83 37.89 17.34 37.37 17.26 36.91 17.52 36.44 17.38 35.81 17.47 35.31 17.74 34.9 17.63 34.41 17.13 34.16 16.46 34.18 16.14 33.58 16.35 32.28 16.23 32.05 16.12 31.3 16.18 30.86 16.06 29.74 16.17 29.37 16.09 28.78 15.75 28.45 16.52 27.51 16.81 27.33 17.04 26.77 17.06 26.21 16.95 25.81 17.17 25.35 17.11 24.7 17.5 24.18 17.84 23.18 17.83 22.54 18.02 22.34 18.55 22.16 19.27 21.63 19.52 20.77 20 20.52 20.13 19.94 20.59 19.41 21.09 18.56 21.32 18 22.02 17.27 22.33 16.74 22.9 16.25 23.57 16 24.02 15.55 24.57 15.45 24.98 14.93 25.36 14.8 26.04 13.9 26.46 13.64 27.17 12.67 27.23 12.34 27.75 11.61 28.28 11.4 28.56 10.72 29.41 9.53 29.84 9.35 30.13 8.78 30.73 8.42 30.91 8.06 30.92 7.66 31.19 7.2 30.97 6.65 31.01 6.08 30.58 5.03 31.02 4.57 31.06 3.78 31.88 2.1 32.49 1.35 32.53 1.11 33.1 1.17 33.73 1 35.3 1.05 35.99 1.26 36.17 1.58 37.53 2.09 37.05 1.54 37.88 1.63 37.94 1.77 39.79 2.78 40.36 3.2 41.52 4.17 42.86 4.83 43.62 5.12 44.17 5.48 45.01 5.6 46.45 6.17 47.42 6.62 48.29 6.91 49.12 7.26 49.86 7.34 50.52 7.62 52.51 8.27 53.63 8.42 54.67 8.71 55.72 9.09 56.01 9.03 56.68 9.42 58.46 10.26 59.51 10.7 59.74 10.86 60.86 11.35 61.05 11.23 61.36 11.52 61.68 11.55 62.27 11.31 62.51 10.84 62.88 11.18 63.28 11.28 63.48 11.6 64.02 11.48 64.74 11.89 65.21 12.3 65.96 12.68 66.86 13.21 67.33 13.28 67.43 13.63 68.55 14.13 69.06 14.69 69.11 15.01 69.62 14.95 70.81 15.73 71.46 16.48 71.88 16.75 73.14 17.89 73.98 18.48 74.79 18.97 75.68 20.02 75.88 20.6 77.38 21.94 79.49 23.72 81.25 24.9 81.47 25.21 82.7 26.15 83.32 26.76 84.14 27.69 84.59 28.05 84.48 28.49 Z" data-anchor-x="60.0" data-anchor-y="60.0" data-fill-id="03" data-name="Guyane" id="03"/>
		

	</g>
	

</svg>
