<?xml version="1.0" ?>
<svg baseProfile="tiny" height="50" stroke-linecap="round" stroke-linejoin="round" version="1.2" viewBox="0 0 200 200" width="50" xmlns="http://www.w3.org/2000/svg">
	

	<g id="dep_idf" fill="#000091" stroke="white" stroke-width="10px">
		

		<path d="M 81.93 119.48 60.62 109.8 50.95 108.28 49.14 101.68 38.54 96.69 40.3 89.43 52.56 80.35 60.24 81.9 65.83 75 77.51 68.26 103.65 67.44 115.29 85.75 116.27 99.99 137.8 107.77 134.91 118.62 124.63 119.09 110.47 111.99 94.65 120.11 81.93 119.48 Z" data-anchor-x="88.17" data-anchor-y="93.775" data-fill-id="75" data-name="Paris" id="75"/>
		

		<path d="M 66.09 37.18 81.61 41.21 83.2 51.7 75.11 59.91 77.51 68.26 65.83 75 60.24 81.9 52.56 80.35 40.3 89.43 38.54 96.69 49.14 101.68 50.95 108.28 60.62 109.8 81.93 119.48 76.43 137.22 78.77 142.71 72.2 157.17 77.04 161.29 62.7 161.93 55.41 152.78 47.23 153.62 29.46 130.38 21.48 131.04 19.08 120.72 8.98 118.84 6.7 103.57 7.99 87.22 16.2 71.02 31.52 61.46 41.79 51.21 57.23 39.72 66.09 37.18 Z" data-anchor-x="44.95" data-anchor-y="99.555" data-fill-id="92" data-name="Hauts-de-Seine" id="92"/>
		

		<path d="M 187.14 126.18 178.78 116.71 152.38 95.34 137.81 93.06 128.75 98.89 116.27 99.99 115.29 85.75 103.65 67.44 77.51 68.26 75.11 59.91 83.2 51.7 81.61 41.21 66.09 37.18 69.37 27.8 84.46 33.19 96.41 23.3 103.83 25.13 113.13 34.43 133.08 34.79 137.39 29.56 156.59 18.69 163.73 4.62 178.66 1 183.54 16.55 175.75 20.7 188.28 40.2 191.95 51.3 186.52 55.65 184.23 72.47 175.67 75.55 180.17 97.81 187.47 114.09 187.14 126.18 Z" data-anchor-x="129.01999999999998" data-anchor-y="63.59" data-fill-id="93" data-name="Seine-Saint-Denis" id="93"/>
		

		<path d="M 81.93 119.48 94.65 120.11 110.47 111.99 124.63 119.09 134.91 118.62 137.8 107.77 116.27 99.99 128.75 98.89 137.81 93.06 152.38 95.34 178.78 116.71 187.14 126.18 190.39 133.71 185.66 141.03 193.3 146.35 187.78 170.17 177.69 185.08 178.26 194.94 171.4 199 161.14 189.5 152.19 169.74 128.75 178.22 117.15 178.77 109.84 175.07 97.2 179.07 91.59 167.93 77.04 161.29 72.2 157.17 78.77 142.71 76.43 137.22 81.93 119.48 Z" data-anchor-x="132.75" data-anchor-y="146.03" data-fill-id="94" data-name="Val-de-Marne" id="94"/>
		

	</g>
	

</svg>
