<svg width="40" height="40" viewBox="0 0 40 40" fill="none" xmlns="http://www.w3.org/2000/svg">
<g clip-path="url(#clip0_8206_159470)">
<path d="M31.6192 14.2273L31.3471 14.5161L31.087 14.4215L31.167 13.9569L31.6189 14.0434L31.6192 14.2273ZM36.8199 8.45821L36.268 9.03084L35.624 8.92562L35.9962 8.36641V7.4344L36.2683 7.14527L37.5525 6.95075L37.6326 6.30255L38.2728 6H39.9089L40.0009 6.30255L39.5408 6.38904L39.2687 6.66724L40.0006 7.23988L39.5405 7.52088L38.9965 8.27711H38.0845L37.9044 8.45821H36.8199ZM3.64022 22.6308L3.36806 22.6226L2.26806 21.3078L0 20.4517L1.27216 18.7613L1.17628 17.7243L6.27283 18.6532L8.80925 16.7792L8.34912 19.1313L11.9014 20.5463L14.0856 19.4148L15.8096 16.8682L14.7216 14.7915L17.2618 13.1008L17.902 11.1131L20.6264 11.5022L21.8065 10.2651L22.0787 7.33979L24.7989 8.47163L25.167 6.40247L28.0714 6.20795L29.3556 6.58356L29.0835 7.44782L29.8034 9.70589L27.9793 10.4593L28.8993 11.3966L28.5312 13.2953L29.7113 14.8939L31.4395 15.5528L30.6275 17.1514L30.5354 17.1729L30.5192 16.8732L30.0312 16.8192L29.8072 17.1189L29.6271 17.3918L29.5151 17.5567L29.3952 17.7374L29.3591 18.0103L29.5952 18.6179L30.4313 19.239L30.8313 19.4335L30.8392 19.4363L31.0553 19.4956L31.1512 19.8332L31.1151 20.1301L30.9952 20.2893L30.8553 20.4782L30.8313 20.7889L30.8553 21.0615L31.1433 21.3341L31.2914 21.4746L31.4914 22.0444L31.5034 22.4169L31.2233 22.46L31.1354 22.4437L31.0275 22.4169L30.9195 22.3223L30.9154 22.252L30.9955 22.1655L30.9996 22.1359L31.0116 22.036L30.9876 22.0225L30.8876 21.9604L30.7676 21.9713L30.7597 21.9904L30.7477 22.0094L30.6316 22.0715L30.6195 22.0797L30.5594 22.104L30.5195 22.0528L30.4955 22.0178L30.5034 21.8964L30.4673 21.7993L30.3113 21.7371L30.2433 21.729L30.0873 21.675L30.0632 21.6912L29.8873 21.6482L29.7673 21.6672L29.6274 21.7618L29.5914 21.8105H29.5873L29.5831 21.8239L29.5433 21.9186L29.5072 21.9913L29.6591 22.1939L30.0072 22.6639L30.1553 22.6907L30.2673 22.6773L30.3313 22.5883L30.4313 22.4587L30.5072 22.4181L30.6673 22.3669L30.7673 22.3938L30.7553 22.4828L30.6433 22.5477L30.4072 22.8581L30.3433 22.8446L30.2553 22.9499L30.2072 23.0904L30.1433 23.2605L30.1354 23.3333L30.1192 23.4925L30.1072 23.8029L30.1832 23.9296L30.2433 23.9565L30.2512 23.9699L30.3072 24.0483L30.3192 24.2806L30.1313 24.5263L29.9831 24.6153L29.7471 24.6665L29.5911 24.7233L28.5388 25.922L28.6467 26.1543L29.2509 27.4448L24.9863 33.0003L23.6303 32.9004L23.5382 29.2345H21.1698L20.6179 31.4966L19.8979 30.1712H16.0935L15.7093 29.04L13.2612 28.94L12.5292 28.0033L13.0811 27.0529L11.3529 25.4574L9.18077 25.6463L7.99278 27.0582L5.99657 24.0342L3.65636 22.7544L3.64022 22.6308ZM31.0873 10.4596L30.4433 10.9242L29.8031 10.6432L30.0752 9.98159L31.0873 10.0815V10.4596Z" fill="#000091"/>
</g>
<defs>
<clipPath id="clip0_8206_159470">
<rect width="40" height="40" fill="white"/>
</clipPath>
</defs>
</svg>
