<?xml version="1.0" ?>
<svg baseProfile="tiny" height="50" stroke-linecap="round" stroke-linejoin="round" version="1.2" viewBox="0 0 120 120" width="50" xmlns="http://www.w3.org/2000/svg">
	

	<g id="com_ncl" fill="#000091" stroke="white" stroke-width="1px">
		

		<path d="M 119 100.93 118.89 101.31 118.66 101.37 118.38 101.38 118.19 101.64 118.28 101.9 118.52 102.2 118.71 102.54 118.58 102.91 118.45 103.18 118.17 104.18 117.88 104.73 117.68 105.01 117.4 105.32 117.33 105.13 117.21 104.94 116.99 105.04 116.79 105.24 116.33 105.44 116.15 105.58 116.19 105.79 116.35 106.15 115.13 107.13 114.41 107.42 113.46 107.26 114.26 106.98 114.57 106.78 114.78 106.4 114.19 106.41 113.93 106.5 113.63 106.15 113.43 105.61 113.12 105.02 112.96 104.86 112.84 104.38 112.6 104.67 112.36 105.24 112.29 105.55 111.97 105.38 111.77 104.99 111.6 104.53 111.37 104.14 111.54 104.09 111.89 103.88 111.55 103.38 111.2 103.5 110.94 104.05 110.79 105.23 110.72 105.44 110.71 105.67 110.84 106.12 110.94 106.18 111.64 106.69 111.22 106.79 110.69 106.7 110.24 106.55 110.05 106.53 109.95 106.74 109.7 106.98 109.4 107.16 109.12 107.24 108.17 107.01 107.66 106.5 107.71 105.93 108.46 105.53 108.46 105.27 107.77 105.34 106.92 105.25 106.39 104.87 106.63 104.11 106.38 103.86 105.8 104.06 104.92 103.73 104.12 103.13 103.76 102.55 103.6 102.48 102.72 102.86 102.32 102.97 102.02 102.89 101.06 102.47 100.73 102.26 100.59 101.86 100.85 101.62 101.03 101.38 100.6 100.97 100.26 100.84 99.14 100.67 98.75 100.71 98.32 101.31 98.06 102.23 97.67 102.88 96.91 102.67 96.9 102.84 96.89 102.91 96.82 102.94 96.68 102.95 96.97 103.72 96.58 103.91 96.08 103.73 96 103.37 96.11 103.01 96.18 101.97 96.44 101.54 96.44 101.27 95.88 101.3 95.37 101.16 94.94 100.86 94.59 100.38 95.83 100.44 96.37 100.29 96.69 99.86 95.99 99.82 95.76 99.46 95.9 98.14 95.52 98.17 94.69 98.03 94.33 98.14 94.21 98.38 94.04 99.13 93.93 99.29 93.45 99.36 93.26 99.57 93.15 99.87 92.89 100.25 92.53 100.4 92.35 100.15 92.42 99.71 92.76 99.29 92.37 99.04 91.43 98.13 91.43 97.87 91.68 97.74 91.8 97.59 91.88 97.36 91.93 97 91.69 97 91.31 97.41 90.31 97.18 90.38 97.56 89.65 97.86 89.01 97.62 88.4 97.28 87.73 97.28 87.7 96.49 87.35 95.88 86.84 95.46 86.3 95.31 85.82 95.04 85.39 94.6 84.92 94.51 84.34 95.31 83.92 95.06 83.52 94.75 83.7 94.53 83.79 94.31 83.81 94.02 83.81 93.59 84.05 93.6 84.37 93.97 84.8 94.15 85.11 93.99 85.12 93.34 84.89 92.94 84.14 92.61 83.81 92.19 84.86 92.2 85.29 92.29 85.65 92.47 85.61 92.04 85.44 91.78 85.15 91.66 84.73 91.63 84.54 91.38 84.6 90.84 84.75 90.35 84.86 90.22 84.56 89.31 84.07 88.92 82.74 88.51 82.28 88.8 82.03 88.68 82.08 88.34 82.5 87.94 82.1 87.75 81.82 87.44 81.67 87.04 81.69 86.54 81.09 86.93 80.87 87.31 80.91 88.37 80.73 88.62 80.32 88.61 79.88 88.53 79.59 88.51 79.74 88.71 79.71 89.2 79.46 89.54 78.94 89.22 78.38 88.46 78.03 88.09 76.84 87.64 76.05 86.29 75.49 85.98 75.23 85.91 74.94 85.73 74.45 85.3 74.22 85.17 74.02 85.24 73.81 85.39 73.56 85.44 72.44 85.42 72.07 85.2 71.98 84.58 72.79 84.94 72.53 84.53 71.46 83.48 71.46 83.16 71.62 82.77 71.66 82.47 71.31 82.33 70.91 82.43 70.75 82.67 70.77 83.04 70.91 83.48 70.27 83.26 70.13 82.79 70.19 82.18 70.09 81.51 69.77 81.09 69.37 80.75 69.07 80.28 69.07 79.49 68.77 79.49 68.47 80.14 68.07 80.67 67.57 81.05 66.95 81.21 66.98 80.37 66.93 79.89 66.64 79.72 65.91 79.79 65.88 79.88 65.9 80.07 65.85 80.27 65.62 80.37 65.41 80.34 60.27 77.8 59.09 76.72 59.55 75.86 59.55 75.56 59 75.76 58.67 75.65 58.73 75.43 59.28 75.28 58.67 74.82 58.03 74.97 57.39 75.36 56.76 75.57 56.09 75.44 52.03 73.66 51.5 73.22 51.18 72.67 50.81 71.37 50.71 71.12 49.98 71.04 49.5 70.8 48.43 69.98 48.11 69.9 47.77 69.89 47.49 69.82 47.38 69.55 46.85 68.96 46.73 68.86 45.28 66.32 45.2 65.93 45.33 65.73 45.35 65.54 45.08 65.31 44.98 65.22 44.72 65.23 44.37 65.37 44.13 65.5 44.17 65.48 44.04 66.06 43.7 66.26 43.35 66.06 43.16 65.49 42.87 65.74 42.58 65.95 42.24 66 41.8 65.77 42.52 64.97 42.43 64.29 41.83 63.93 40.98 64.09 41.3 63.47 41.12 63.06 40.2 62.41 39.86 62.97 39.98 63.83 39.69 64.38 39.27 64.64 38.9 64.55 38.58 64.24 38.36 63.81 38.52 63.48 38.54 63.12 38.66 62.77 38.88 62.42 38.59 62.06 38.31 61.98 38.02 61.94 37.68 61.73 37.46 61.47 37.19 61 34.32 57.56 34.13 57 34.06 56.12 34.08 55.47 34.03 54.74 33.72 54.31 32.98 54.57 33.02 54.03 33.09 53.9 33.26 53.72 33.25 53.41 33 53.41 32.82 53.35 32.44 53.17 32.67 52.85 32.62 52.68 32.34 52.68 31.91 52.89 31.82 53.37 31.38 53.43 31.03 53.12 30.87 52.48 30.63 52.45 30.15 52.53 29.84 52.76 30.09 53.19 29.84 53.48 29.56 53.75 28.84 51.82 28.34 51.04 27.69 50.65 28.43 50.11 28.09 49.76 27.28 49.43 26.62 48.94 27.23 48.88 27.55 48.62 27.59 48.24 27.38 47.84 26.9 47.57 26.4 47.52 26.07 47.34 26.05 46.7 25.81 46.7 25.21 47.11 24.6 46.82 23.67 45.91 23.26 45.8 22.47 45.78 22.05 45.61 21.89 45.4 21.39 44.49 20.53 44.33 19.83 43.9 18.12 42.18 16.96 41.41 16.43 40.87 16.04 40.22 16.29 40.18 16.87 40.28 17.48 40.04 17.77 39.39 17.53 38.85 16.96 38.49 16.28 38.36 15.69 37.92 14.82 36 14.1 35.57 12.9 32.75 12.69 32.9 12.51 32.94 12.33 32.97 12.11 33.04 11.71 32.31 9.23 30.73 8.63 29.84 8.17 28.16 8.08 27.58 7.87 26.9 7.42 26.6 6.89 26.4 6.49 26.02 6.3 25.18 6.74 25.09 7.79 25.45 8.15 25.01 8.3 24.31 8.29 23.05 8.13 22.76 7.72 22.23 7.23 21.72 6.79 21.5 4.96 21.43 4.51 21.24 4.76 20.7 4.78 20.16 4.53 19.89 3.99 20.12 4.16 20.53 3.94 21 3.57 21.38 3.21 21.54 2.63 21.39 2.44 21.01 2.34 20.63 2 20.45 1.42 20.05 1.55 19.24 2.25 18.67 3.44 19 3.8 18.51 3.64 18.02 2.89 17.07 3.34 16.87 3.62 16.46 3.66 15.93 3.4 15.38 2.81 14.93 2.35 15.02 1.86 15.29 1.25 15.41 1.25 15.09 1.45 14.93 1.57 14.74 1.77 14.25 1.2 14.07 1 13.69 1.04 13.18 1.22 12.59 1.52 12.63 2.06 12.58 2.79 13.02 3.56 13.64 4.17 14.33 4.58 15.3 4.94 15.53 5.82 15.91 8.73 19.27 9.31 19.8 11.13 20.8 11.91 20.93 12.77 20.61 13.01 20.6 13.53 21.74 13.95 22.16 14.65 22.25 14.29 21.75 13.71 20.36 13.44 19.02 13.52 18.71 13.88 18.69 20.9 21.31 22.15 22.39 24.24 25.02 24.81 25.53 25.59 26.08 26.41 26.51 27.08 26.68 28.29 27.77 28.69 27.95 29.88 28.34 30.44 28.86 31.54 30.3 32.14 30.6 32.48 30.89 33.89 32.84 35.91 34.63 36.29 34.66 37.47 35.38 38.08 35.95 37.89 36.49 38.58 36.96 40.15 37.02 40.81 37.59 41.55 37.85 42.99 39.01 47.09 39.81 47.2 39.89 47.52 40.27 47.74 40.39 47.88 40.34 48.07 40.19 48.3 40.07 48.56 40.05 49.04 40.22 49.21 40.37 49.33 40.57 49.63 40.89 50.57 41.68 50.86 42.22 50.69 42.86 51.09 44.54 51.5 45.13 52.09 45.55 52.69 45.9 53.16 46.31 53.36 46.95 53.68 47.08 55.73 47.36 56.43 47.58 56.64 47.8 56.48 49.17 56.24 50.1 56.14 50.34 55.97 50.64 56.04 50.91 56.19 51.18 56.28 51.47 56.41 52.17 56.73 52.62 58.01 53.57 59.1 54.15 59.61 54.56 60.11 55.11 60.4 55.23 61.4 55.29 61.69 55.42 61.76 55.69 61.61 56.13 61.84 56.03 61.94 56.01 62.01 55.97 62.15 55.82 63.33 56.8 63.84 57.35 63.99 57.78 64.2 57.91 64.3 58.03 64.49 58.37 63.84 58.36 63.25 58.2 62.69 57.92 62.15 57.54 62.32 57.92 62.69 58.39 63.15 58.77 63.6 58.93 64 59.19 64.29 59.79 64.54 60.46 64.79 60.9 65.69 61.29 68.02 61.89 68.74 62.6 69.86 62.3 70.9 62.87 71.67 63.86 71.96 64.82 72.64 64.66 73.04 66.4 73.8 67.09 73.4 66.27 73.36 65.96 73.54 65.66 73.89 65.45 74.26 65.46 74.59 65.72 74.85 66.22 75.07 65.86 75.11 65.41 74.96 64.95 74.56 64.54 75.25 64.72 75.81 65.41 77.15 67.91 77.41 68.61 77.23 68.96 76.41 68.78 76.69 69.21 78.28 70.18 78.05 70.56 78.36 70.6 78.83 70.46 79.07 70.32 78.97 69.79 78.75 69.41 78.48 69.09 78.28 68.78 77.95 67.79 77.87 67.03 78.16 66.75 78.94 67.2 80.12 68.49 80.52 68.61 81.48 68.73 81.83 68.92 81.91 69.2 81.64 69.33 81.31 69.42 81.2 69.6 81.36 69.77 81.62 69.86 81.96 69.9 82.06 70.34 82.13 71.1 82.23 71.59 83.12 71.15 83.83 71.15 84.47 71.51 86.46 73.3 86.69 73.43 87.2 73.57 87.38 73.71 87.77 74.43 89.12 75.33 90.54 76.02 93.6 77 93.6 77.25 92.52 77.25 92.52 77.53 92.8 77.72 92.88 77.96 92.93 78.2 93.07 78.4 93.32 78.52 93.85 78.56 95.17 78.92 95.72 79.2 96.15 79.99 97.64 81.1 97.81 81.39 97.94 82.13 98.18 82.49 98.41 82.66 99.09 82.94 98.81 83.2 99.69 83.97 101.38 85.91 102.11 86.3 102.81 86.85 103.83 87.92 104.75 88.59 105.13 88 106.46 88.94 106.96 89.13 106.96 89.44 106.67 89.64 106.35 89.79 106.02 89.9 105.65 89.97 105.65 90.28 105.96 90.43 107.09 90.29 107.59 90.4 107.99 90.6 108.31 90.71 108.53 90.55 108.81 91.29 109.23 91.7 109.84 91.89 110.65 91.99 112.88 92.56 113.43 92.87 115.37 94.42 115.73 94.92 116.15 95.7 116.21 96.05 116.14 97.1 115.99 97.34 115.72 97.63 115.71 97.87 116.27 97.98 116.61 98.15 116.92 98.56 117.44 99.39 118.79 100.49 119 100.93 Z" data-anchor-x="60.0" data-anchor-y="60.0" data-fill-id="988" data-name="Nouvelle-Calédonie" id="988"/>
		

	</g>
	

</svg>
