<svg width="40" height="40" viewBox="0 0 40 40" fill="none" xmlns="http://www.w3.org/2000/svg">
<g clip-path="url(#clip0_8206_159471)">
<path fill-rule="evenodd" clip-rule="evenodd" d="M0.156966 20.0858C0.329267 20.4642 0.375069 20.3533 0.521197 20.8144C0.667326 21.2754 0.691317 21.4929 1.1297 21.6387C1.56809 21.7844 2.05446 21.9062 2.05446 22.3172C2.05446 22.7283 2.1526 23.3851 2.63897 23.409C3.12534 23.433 3.36962 23.5308 3.56373 23.8462C3.75784 24.1616 3.808 24.3551 4.31836 24.3551C4.82872 24.3551 5.2911 24.5987 5.53537 24.1376C5.77965 23.6766 6.07191 23.5069 6.11989 22.998C6.16787 22.489 5.94977 22.1476 6.51029 21.8822C7.07082 21.6147 7.26493 21.7365 7.31291 21.3972C7.36089 21.0579 6.92251 21.0079 6.97267 20.5229C7.02065 20.0379 7.07082 19.6486 7.41106 19.529C7.7513 19.4072 7.7513 19.2854 7.7513 19.02C7.7513 18.7547 7.7513 18.4372 7.43505 18.4372C7.1188 18.4372 7.1188 18 6.72839 18C6.33799 18 6.41215 18.2436 5.99775 18.2175C5.58336 18.1936 5.65751 18.0957 5.2911 18.4611C4.92687 18.8243 4.92687 18.8004 4.97485 19.1397C5.02283 19.4789 5.02283 19.7465 4.9007 19.964C4.77856 20.1815 4.36634 20.2054 4.34017 19.94C4.31618 19.6725 4.55828 19.6486 4.58445 19.2615C4.60844 18.8743 4.39034 18.5329 4.09808 18.4611C3.80582 18.3893 3.87998 18.7764 3.61171 18.8982C3.34344 19.02 3.22131 19.1157 3.31945 19.4072C3.4176 19.6986 3.44159 20.0858 3.24748 20.2076C3.05337 20.3293 2.95522 20.425 2.83308 19.964C2.71095 19.5029 2.51684 19.2114 2.20059 19.1136C1.88434 19.0157 1.88434 19.0657 1.5441 18.846C1.20386 18.6286 0.959584 18.5785 0.741481 18.7482C0.523378 18.9178 -0.353394 18.9657 0.156966 20.0836V20.0858Z" fill="#000091"/>
<path fill-rule="evenodd" clip-rule="evenodd" d="M17.7252 21.2928C17.156 21.5777 17.6904 22.0671 17.3872 22.302C17.084 22.5369 16.8136 22.402 16.8485 22.0671C16.8812 21.73 16.5453 21.4277 16.3752 21.5625C16.2073 21.6974 16.3425 22.2694 15.9695 22.2694C15.5966 22.2694 14.9248 21.8996 14.8572 22.302C14.7896 22.7065 14.722 22.8392 14.4864 23.1089C14.2509 23.3786 15.06 23.7135 15.0251 24.4204C14.9924 25.1272 14.5519 25.7666 15.228 26.5061C15.9019 27.2456 15.8016 27.8524 16.1396 28.357C16.4777 28.8616 16.8485 29.4336 16.8485 30.2753C16.8485 31.117 17.1516 32.8982 18.0633 33.0331C18.975 33.1679 19.0753 33.4376 19.3457 33.2005C19.6162 32.9656 20.0197 32.9983 20.0197 33.3006C20.0197 33.6029 20.0524 33.7725 20.4254 33.7725C20.7983 33.7725 20.8637 33.5029 21.5377 33.94C22.2116 34.3772 22.2792 34.1075 22.65 34.4772C23.0208 34.847 23.3588 34.9818 23.6293 34.4772C23.8997 33.9726 23.9673 33.94 24.5409 33.9726C25.1146 34.0053 25.385 34.6121 25.6206 34.2075C25.8561 33.803 26.1266 33.8378 26.4297 33.803C26.7329 33.7704 26.6653 33.0287 27.2738 33.0961C27.8801 33.1636 28.1505 33.3985 28.4537 33.1636C28.7569 32.9287 29.0949 33.1288 29.2302 32.7938C29.3654 32.4567 29.4657 32.4241 29.3654 32.087C29.2651 31.7499 29.6685 31.1779 29.8038 31.7172C29.939 32.2544 29.7034 32.5241 30.0393 32.759C30.3774 32.9939 30.6805 33.2636 30.6456 33.5659C30.6129 33.8682 30.4101 34.3054 30.8136 34.6077C31.2192 34.91 31.6576 35.1797 31.5224 35.6169C31.3872 36.054 31.2192 36.4586 31.758 36.5934C32.2989 36.7283 32.264 36.7957 32.4668 37.2655C32.6696 37.7353 32.8376 37.9723 33.4788 38.1398C34.12 38.3073 34.1876 38.1724 34.4581 38.577C34.7285 38.9815 34.8637 38.7792 34.9641 38.5095C35.0644 38.2398 35.4025 38.2072 35.8757 38.6444C36.349 39.0815 36.349 39.3839 36.9881 39.3512C37.6293 39.3186 38.0677 39.4513 38.3381 38.8466C38.6086 38.242 38.7438 38.1746 39.2149 37.8049C39.6882 37.4351 39.8212 37.098 39.8212 36.6608C39.8212 36.2237 39.6184 35.8191 39.6533 35.4168C39.6882 35.0122 40.2945 34.7099 39.8212 34.0031C39.3479 33.2962 38.5737 32.3545 37.7645 32.4219C36.9553 32.4893 36.9205 31.6476 36.2465 31.8499C35.5726 32.0522 35.4701 31.9173 35.0993 31.4454C34.7285 30.9734 34.8965 31.4454 34.2225 31.4454C33.5486 31.4454 34.0873 31.7151 33.1429 31.7151C32.1985 31.7151 30.8834 31.4802 30.8834 30.6059C30.8834 29.7315 31.1189 29.2269 30.8158 28.5549C30.5126 27.8828 30.6478 27.6806 30.6478 27.1412C30.6478 26.6018 30.5475 26.4691 30.7481 26.0646C30.951 25.6601 31.2541 25.7623 31.1189 24.9206C30.9837 24.0789 31.0513 23.4068 30.6456 23.3068C30.24 23.2068 29.8016 22.4325 29.4984 22.1302C29.1953 21.8278 28.7896 21.4233 28.216 21.5255C27.6424 21.6256 26.8332 21.0884 26.6304 20.8535C26.4275 20.6186 25.8888 19.9792 24.9444 19.9792C24.0001 19.9792 23.7972 19.7443 23.4941 19.9792C23.1909 20.2141 22.8877 20.2141 22.5824 20.2141C22.277 20.2141 22.3119 19.7421 21.9085 19.5746C21.5028 19.4072 21.3348 19.3397 21.132 19.7421C20.9292 20.1466 20.7263 20.2141 20.6587 20.6164C20.5911 21.021 20.5584 21.1884 20.1854 21.2558C19.8147 21.3233 19.915 21.0884 19.5442 20.8513C19.1734 20.6164 18.5649 20.3467 18.4646 20.6838C18.3643 21.021 17.9913 21.1558 17.7231 21.2885L17.7252 21.2928Z" fill="#000091"/>
<path fill-rule="evenodd" clip-rule="evenodd" d="M34.9231 5.06379C34.5073 4.6277 34.6645 4.59472 33.8296 3.87644C32.9948 3.15817 32.8016 2.83202 32.3825 3.08488C31.9635 3.33774 31.7408 4.23924 32.5102 4.56173C33.2829 4.88422 33.2174 5.10044 33.6692 5.53287C34.121 5.9653 34.1832 6.28779 34.6972 6.61394C35.2112 6.93643 35.5976 7.15265 35.7907 6.8668C35.9839 6.57729 36.1443 6.61394 35.7907 6.2548C35.4371 5.89567 35.4699 5.64281 34.9231 5.06746V5.06379Z" fill="#000091"/>
<path fill-rule="evenodd" clip-rule="evenodd" d="M36.2097 7.10094C35.851 7.39139 36.0122 7.60099 36.25 7.74771C36.4878 7.89443 36.8062 7.92437 36.7659 8.24776C36.7256 8.57114 36.7256 8.92447 36.5281 9.13107C36.3306 9.33768 35.9719 9.63112 36.25 9.83773C36.5281 10.0443 36.8062 10.1012 36.9634 9.72095C37.1206 9.33768 37.0037 9.2209 37.3987 9.07418C37.7937 8.92746 37.9146 8.89752 37.8743 8.4873C37.834 8.07409 38.3095 7.69381 37.6365 7.60398C36.9634 7.51415 36.6853 6.72066 36.2097 7.10393V7.10094Z" fill="#000091"/>
<path fill-rule="evenodd" clip-rule="evenodd" d="M36.5742 10.5333C37.0072 11.265 36.9192 11.5502 36.7115 11.8727C36.5038 12.1992 37.0564 12.563 36.5038 12.7656C35.9511 12.9681 35.8807 13.2534 36.1588 13.4146C36.4369 13.5758 36.2292 13.9024 36.8171 13.9024C37.4049 13.9024 37.5422 14.3489 37.5422 13.3319C37.5422 12.315 38.1653 13.1707 37.9576 12.1951C37.7499 11.2195 37.2325 11.3849 37.3697 10.7317C37.507 10.0827 37.2993 10 37.06 10C36.8206 10 36.2644 10 36.5742 10.5291V10.5333Z" fill="#000091"/>
<path fill-rule="evenodd" clip-rule="evenodd" d="M34.0784 7.06959C33.5799 7.30531 34.04 7.85293 33.7754 8.13942C33.5108 8.42592 33.2462 8.42592 32.8704 8.45856C32.4946 8.49483 31.44 8.74506 32.3795 9.2419C33.3229 9.74237 33.7754 9.92007 33.8867 10.2755C33.9979 10.6309 33.9634 11.2365 34.5271 11.3453C35.0908 11.4541 34.715 11.9147 35.2442 11.9872C35.7734 12.0597 35.923 11.8095 35.5817 11.5955C35.2442 11.3816 35.7696 10.9536 35.4705 10.562C35.1675 10.1703 34.9067 10.0651 35.0563 9.6372C35.2059 9.20926 35.7734 9.24553 35.808 8.74506C35.8463 8.24459 36.3372 7.53379 35.5817 7.42499C34.83 7.31619 34.6038 6.81935 34.0746 7.06959H34.0784Z" fill="#000091"/>
<path fill-rule="evenodd" clip-rule="evenodd" d="M30.8517 6.05937C30.3183 6.28968 30.0541 6.46726 30.0033 6.79469C29.9525 7.12212 30.5012 7.12212 30.7501 7.44954C30.999 7.77697 30.9025 8.10439 31.5477 7.96843C32.198 7.83246 31.8475 7.6965 31.8983 7.42457C31.9491 7.15264 32.1472 7.01667 31.7966 6.82521C31.4461 6.63375 31.5477 5.76247 30.8466 6.06214L30.8517 6.05937Z" fill="#000091"/>
<path fill-rule="evenodd" clip-rule="evenodd" d="M31.3648 10.1274C31.1605 10.4167 30.7594 10.7023 31.1952 11.0282C31.6309 11.3504 31.2337 12.0352 31.6116 11.9986C31.9894 11.962 31.6501 11.6397 31.8391 11.3138C32.028 10.9916 32.0473 10.8451 31.9143 10.6657C31.7812 10.4863 31.6675 9.69531 31.3648 10.1274Z" fill="#000091"/>
<path fill-rule="evenodd" clip-rule="evenodd" d="M33.5024 12.029C33.2789 12.1689 32.832 12.2984 33.0659 12.5329C33.2998 12.7673 33.1986 12.9038 33.635 12.9703C34.0715 13.0368 34.0366 13.0053 33.9353 12.7358C33.8341 12.4664 33.7677 11.861 33.4989 12.029H33.5024Z" fill="#000091"/>
</g>
<defs>
<clipPath id="clip0_8206_159471">
<rect width="40" height="40" fill="white"/>
</clipPath>
</defs>
</svg>
