<?xml version="1.0" ?>
<svg baseprofile="tiny" stroke-linecap="round" stroke-linejoin="round" version="1.2" width="50" height="50" viewBox="0 0 120 120" xmlns="http://www.w3.org/2000/svg">
<g id="reg_reu" fill="#000091" stroke="white" stroke-width="1px">
<path d="M 8.25 56.36 7.07 55.66 6.67 54.93 3.97 52.87 1.79 49.7 1.73 48.67 2.15 45.47 1.22 43.14 1 41.74 2.55 40.1 4.28 37.95 6.78 38.2 8.33 37.48 10.42 36.12 11.64 35.01 12.88 32.84 13.37 29.66 13.3 28.31 12.34 25.73 12.45 24.4 13.42 22.13 14.27 22.03 14.3 20.58 13.53 20.67 13.43 19.26 14.43 18.54 17.07 19.62 19.99 19.5 20.29 20.39 21.35 20.84 21.38 19.54 22.52 19.32 24.89 18.21 26.59 15.94 28.45 14.91 30.02 13.08 31.18 12.64 33.91 10.73 34.47 9.99 37.44 9.17 39.58 8.37 40.84 8.17 43.04 8.74 45.18 7.81 46.36 8.84 48.78 10.28 52.42 10.59 54.7 9.87 56.21 10.04 58.17 10.93 61.48 11.61 62.49 12.24 64.32 12.38 65.81 11.61 68.57 11.99 69.76 12.69 72.07 12.44 76.32 14.74 77.88 15.42 79.19 15.36 81.22 15.79 83.51 16.73 86.04 18.26 86.9 19.68 89.51 22.15 91.07 24.92 92.09 26.27 92.82 28.87 92.93 33.94 93.25 36.56 94.31 38.95 96.09 39.64 97.37 41.21 97.88 42.44 99.01 43.43 98.74 44.99 99.99 47.44 101.88 49.67 103.88 51.71 104.68 53.39 106.81 55.33 108.53 58.27 109.32 58.68 110.75 58.47 111.89 58.92 113.4 60.23 113.85 61.02 115.28 61.27 117.04 62.48 117.28 63.81 118.65 65.85 118.23 66.68 118.47 68.84 119 70.03 118.11 70.89 116.98 70.83 116.79 71.53 116.95 73.74 116.35 75.06 114.8 76.54 114.55 78.03 113.76 79.19 113.7 81.51 113.09 82.96 113.05 84.11 112.5 86.29 112.98 88.28 112.8 89.23 113.82 91.47 113.29 92.49 112.99 95.83 113.52 99.45 114.02 100.21 113.7 101.18 111.51 104.19 110.28 104.97 108.92 106.27 107.49 107.17 104.08 106.75 102.39 107.88 98.96 108.09 96.15 109.28 93.9 109.64 89.86 109.21 87.99 111.11 85.66 110.89 83.06 112.19 81.95 111.02 79.63 110.92 78.12 111.49 76.28 111.86 74.84 111.09 74.38 110.35 72.63 109.67 72 108.83 71.16 108.91 69.09 109.76 67.35 108.95 65.89 108.74 65.27 109.16 63.98 108.01 62.55 107.22 59.99 106.76 55.66 104.68 52.26 104.47 51.29 103.45 49.8 103.52 47.78 102.87 46.69 101.56 46.85 100.94 45.78 100.26 42.11 99.88 39.36 98.35 38.55 97.5 37.98 96.11 35.75 93.74 34.09 92.77 32.39 92.13 29.89 91.52 25.56 90.91 24.05 90.26 23.42 89.16 23.03 86.33 21.09 84.97 21.03 84.25 19.73 83.58 19.31 82.69 18.38 81.96 17.58 81.91 15.85 80.49 15.77 79.46 15.1 78.49 14.47 76.19 13.47 75.03 14.2 73.74 14.71 71.15 14.41 67.6 14.57 66.62 13.53 65.16 11.82 64.5 11.36 60.62 9.52 59.03 8.02 56.97 8.25 56.36 Z" data-anchor-x="60.0" data-anchor-y="60.0" data-fill-id="04" data-name="La Réunion" id="04"></path>
</g></svg>
