<?xml version="1.0" ?>
<svg baseProfile="tiny" height="50" stroke-linecap="round" stroke-linejoin="round" version="1.2" viewBox="0 0 120 120" width="50" xmlns="http://www.w3.org/2000/svg">
	

	<g id="com_spm" fill="#000091" stroke="white" stroke-width="1px">
		

		<path d="M 85.36 106.45 84.21 107.8 83.33 109.3 82.72 110.98 82.45 112.91 85.6 114.59 86.74 114.95 81.89 117.56 76.11 119 70.63 118.49 66.75 115.15 71.16 108.23 73.52 105.3 76.76 102.59 79.18 101.67 83.12 101.01 86.02 102.12 85.36 106.45 Z M 59.38 75.71 67.44 82.77 64.66 91.85 56.37 100.6 44.54 109.9 41.98 110.79 39.42 109.15 37.88 105.26 38.45 102.84 38.43 100.71 35.06 97.66 33.94 93.91 37.34 89.28 45.03 81.89 47.96 69.87 46.08 57.92 35.83 33.22 35.13 28.29 34.44 17.33 33.26 12.42 33.38 9.49 35.06 5.89 37.17 3.17 39.47 1.34 41.89 1 44.37 2.69 40.54 5.67 38.41 8.67 38.54 11.8 41.51 15.19 45 16.87 52.4 18.61 63.19 27.48 63.56 30.46 63.47 34.63 62.74 38.35 59.98 41.29 59.09 44.15 57.75 47.02 55.36 48.34 54.16 47.71 53.59 46.28 53.22 44.84 52.55 44.21 51.1 44.44 47.46 46.33 44.56 45.24 43.18 45.65 43.21 48.45 44.14 50.11 45.41 50.36 46.63 50.21 48.29 51.13 49.51 51.15 50.83 51.36 51.91 52.54 52.31 54.59 51.72 56.07 50.85 57.13 50.41 58.02 50.52 70.51 51.44 74.35 53.66 75.5 59.38 75.71 Z" data-anchor-x="60.0" data-anchor-y="60.0" data-fill-id="975" data-name="Saint-Pierre-et-Miquelon" id="975"/>
		

	</g>
	

</svg>
