<svg width="40" height="40" viewBox="0 0 40 40" fill="none" xmlns="http://www.w3.org/2000/svg">
<path d="M32.0742 0.395775L32.099 0.0536533L32.0593 0L31.9004 0.0536533L31.8657 0.514368L31.9128 0.573092L32.0742 0.395775ZM34.5821 3.17021L35.0092 3.57473L35.1619 3.51732L35.178 3.27759L34.8602 2.88182L34.4033 2.93924L34.5548 2.9942L34.5821 3.17021ZM35.7727 5.5325L35.8198 5.47885L35.8372 5.24788L35.7031 5.07555H35.5008L35.4462 5.12921L35.4412 5.2478L35.6684 5.53749L35.7727 5.5325ZM32.1859 0.918976L32.3014 0.800383H32.5063L33.0426 1.60821L33.235 1.7268L33.492 1.66939L33.5131 1.31982L33.3307 1.09261L33.3406 0.972711L32.8266 0.457034L32.2183 0.569412L31.9415 0.857798L32.1859 0.918976ZM37.8373 13.556L37.4846 13.5023L37.3196 13.6721L37.2935 14.0217L37.4313 14.1952H37.7429L37.8994 14.0179L37.918 13.7869L37.8286 13.6683L37.8373 13.556ZM37.6523 12.5708L37.2513 12.5746L36.9807 12.8593L37.6188 13.0404L37.9913 12.7557L38 12.6358L37.7666 12.4597L37.6523 12.5708ZM35.7727 11.5931L35.4884 11.2436L35.5318 10.6742L35.3406 9.92381L35.147 9.80898H34.6429L34.4604 9.68908L34.314 9.51553L34.3363 9.1734L34.1054 8.99985L33.9763 8.71514L34.0334 7.90356L33.9403 7.78365L33.9564 7.55391L33.7341 7.14938L33.497 6.98335L33.3741 5.94079L33.24 5.76846H32.8328L32.1847 5.07179L31.9848 4.95941L31.3852 4.95565L31.2722 5.07555L30.8675 5.1867L30.4404 5.53758L30.135 5.54134L29.9736 5.70614L29.9401 6.05571L29.7725 6.3454H29.6706L29.0673 6.97591L28.9518 7.2144L28.9084 7.78373L28.8041 7.90732L28.7718 8.24568L28.5484 8.60031L28.5074 9.16964L28.1734 9.63534L28.0541 9.86632L28.1311 10.0923L28.105 10.4356L27.8815 10.7852L27.8641 11.0162L28.2427 11.3671L28.2949 11.9401L28.0789 12.1711L28.0515 12.5207L28.1459 12.6331L28.1211 12.9826L27.8964 13.2136L27.838 13.3859L27.5226 13.4983L27.3625 13.6756L27.1738 14.0839L26.2539 14.3061L25.9398 14.5371L25.6394 14.5409L25.1018 15.0028H24.9019L24.7343 15.1726L24.7082 15.5222L24.7976 15.6421L24.7839 15.8606L24.8758 15.9805L24.8683 16.1004L24.9664 16.2116L24.9292 16.5537L24.8249 16.6736L24.6585 17.4852L24.9292 17.9471L24.9862 18.5277L25.2197 18.8124L25.5188 18.8087L25.7237 18.6975L25.9112 18.9273H26.1135L26.3283 18.8087L26.4313 18.6975L26.5741 18.7512L26.5356 19.3318L26.6698 19.5053L27.37 19.6252L27.5873 19.3818H27.6853L27.8194 19.5665L27.6059 19.9086L27.5724 20.2595L27.6568 20.483L27.9026 20.5442L28.2317 20.8289L28.1982 21.2909L28.4688 21.7603L28.4514 21.9801L28.1001 22.5644L28.074 22.914L28.1733 23.0227L28.146 23.3648L28.2838 23.5495L28.4775 23.5458L28.5284 22.9689L28.7866 23.5458L28.989 23.4259L29.5663 23.8841L29.7662 23.8917L30.0343 23.5958L29.94 23.4884L30.3795 23.0227L30.6725 22.507H30.8773L31.2498 22.8529H31.5502L32.2033 23.5421H32.5074L32.8389 23.0802L33.0524 22.9653H33.2498L33.4199 22.7993L33.5502 22.3374L33.0337 21.8142L32.8326 21.9254L32.6327 21.8142L32.5259 21.9254H32.3286L32.0902 21.6407L32.1262 21.18L32.2938 21.0064L32.5471 20.949L32.413 20.7754H32.1138L31.8928 21.0064L31.7575 20.8329L32.1809 20.4907L31.9872 20.3708L31.9947 20.2522L32.4341 19.7977L32.4018 19.6204L32.2057 19.5018L32.0629 19.4482L32.0852 19.0973L32.2045 18.8663L32.5943 18.3469L32.8438 18.2932L32.8587 18.1733L32.4987 17.7126L32.5173 17.4816L32.6762 17.3081L33.0648 17.5428L33.3243 17.3667L33.3951 16.4465L33.112 16.2156L33.1331 15.866L33.8271 14.7111L33.9886 14.5413L34.1847 14.6536L34.6615 14.2529L34.6776 14.0219L35.4982 12.5249L35.7192 12.2864L35.8446 11.9442L35.754 11.8243L35.7727 11.5931ZM28.6017 26.6012L28.4676 26.4351H28.264L28.0306 26.1392L28.0567 25.8009L27.9188 25.6235L27.6656 25.6822L27.7314 26.1429L27.606 26.3739L27.7599 26.4275L27.9871 26.721L27.8543 27.1817L27.6321 27.4127L27.6606 27.701L28.0815 27.4701L28.3844 27.4663L28.7743 27.6973L28.8426 27.4089L28.9655 27.1792L28.588 26.8396L28.6017 26.6012ZM33.8769 26.0243L33.7391 25.8507H33.5454L33.3777 26.0281L33.3603 26.259L33.5118 26.8359L33.487 27.1792L33.2573 27.5214L33.6459 27.7599L33.4882 28.4528L33.2734 28.6826L33.5093 28.9673L33.6658 28.8025L33.9091 28.2169L33.9725 27.4165L33.8098 26.947L33.8769 26.0243Z" fill="#000091"/>
<path d="M1.00675 25.2871L1 25.3796L1.03676 25.4253H1.11125L1.15574 25.3738L1.17225 25.2025L1.13549 25.1519L1.00675 25.2871Z" fill="#000091"/>
<path d="M20.5263 36.2119L20.2399 35.9423L19.9961 36.0347L19.9757 35.8042L20.0657 35.7204L19.9496 35.5823L19.8703 35.6747L19.7097 35.6718L19.5694 35.4927H19.4155L19.1601 35.6718L18.9279 35.6689L18.8447 35.7623H18.6889L18.6153 35.6747L18.5389 35.6816L18.3773 35.6786L17.6304 35.228L17.2075 34.686L16.7586 34.4185L16.3667 34.4214L16.2816 34.509H16.1258L16.0426 34.6014L15.881 34.5985L15.5549 34.7843L14.9213 34.8739L14.7548 34.9586L14.33 35.411L14.0978 35.4081L13.9285 35.5015L13.6324 35.8158L13.6247 35.9093L13.3354 36.1311L12.6939 36.314L12.4743 36.5358L12.3533 37.073L12.0088 37.5255L11.9701 37.9721L12.1434 38.2874L12.2923 38.3838L12.5246 38.3769L13.0326 38.8333L13.5715 38.9238L13.648 39.0104H13.8801L13.9527 39.0971L14.4132 39.1865L14.5942 39.4182L14.6465 39.6848L14.7567 39.82L15.1505 39.8229L15.3692 39.9971L15.6817 40L15.7678 39.9066H15.8462L16.2284 39.5048L16.3348 39.1476L17.0585 38.4674L17.3895 38.2904L17.8075 37.9274L18.3793 37.6578L19.0391 37.2948L19.5094 37.2044L19.5984 37.112L19.9864 37.1148L20.7169 36.7519L20.9317 36.53L20.9027 36.3919L20.5263 36.2119Z" fill="#000091"/>
<path d="M12.305 33.3422L13.0819 33.3393L13.3838 33.5213H13.7747L14.4404 33.0727L14.7538 33.0688L14.959 32.9403L14.9744 32.7603L14.6552 32.3497L14.2536 32.4392L14.1675 32.5326L13.466 32.5288L13.1671 32.3516L12.9512 32.0792L12.6339 32.1726L12.2653 31.8097H12.0331L11.7563 31.3591H11.5242L11.3519 31.5459L11.1932 31.5421L11.1245 31.4496L10.7462 31.2696L9.95955 30.3695L9.80674 30.2829H9.57447L9.28032 30.0134H8.8885L8.37282 29.6504L7.83583 28.978L7.84258 28.8914L7.63065 28.615L7.38204 27.8084L7.18271 27.3559L7.20402 27.0893L7.49232 26.4587L7.37911 26.4139L7.04048 26.6845H6.73087L6.45413 26.2339H6.0623L5.91226 26.1444L5.70521 25.7843L5.15757 25.7815L4.78705 25.5148L4.54608 25.1101L4.57707 24.75L4.50835 24.5699L4.32553 24.4376L3.38599 24.4318L3.31824 24.3452H3.07736L3.00864 24.2518L2.78321 24.1622L2.49198 23.8947L2.25492 23.8917L1.87465 24.207L1.77982 24.4805L1.60473 24.6565L1.50218 25.0166L1.24576 25.2891L1.19258 25.9138L1.26317 26.0101L1.25642 26.0996L1.32603 26.1892L1.30188 26.4539L1.43151 26.8217L1.92499 27.5359L1.90758 27.7159L2.20174 27.9854L2.1862 28.1713L2.31592 28.5256L2.60226 28.8856L2.66423 29.0656L2.63804 29.4256L2.70196 29.5181L2.58388 30.0581L2.96513 30.6429L3.11412 30.7295L3.35216 30.7325L3.43828 30.6458L3.63273 30.6848L3.61532 30.8706L3.52822 30.9572L3.59402 31.1372L3.48659 31.4944L3.69949 31.7649L3.74593 32.1239L3.89012 32.3049L3.88044 32.3974L4.06228 32.6222L4.2055 32.7156L4.36806 32.7088L4.43678 32.8022L4.66994 32.8917L4.96117 33.1593L5.66365 33.1564L6.0719 32.9852L6.69021 32.9822L6.76568 33.0688L7.47394 33.0756L7.54071 33.1622H7.77777L7.84551 33.2488L8.23733 33.2518L8.32541 33.1652L9.18648 33.1564L9.25422 33.2518H9.56968L9.64124 33.3393L10.6601 33.3452L10.7462 33.2518H10.8991L10.9707 33.3422L12.2179 33.4347L12.305 33.3422Z" fill="#000091"/>
</svg>
