<svg width="24" height="24" viewBox="0 0 24 24" fill="none" xmlns="http://www.w3.org/2000/svg">
<path d="M16.125 2.25C15.7108 2.25 15.375 2.58579 15.375 3C15.375 3.41421 15.7108 3.75 16.125 3.75V2.25ZM20.5 3.75H21.25V2.25H20.5V3.75ZM16.125 3.75H20.5V2.25H16.125V3.75Z" fill="white"/>
<path d="M21.25 3V2.25H19.75V3H21.25ZM19.75 7.375C19.75 7.78921 20.0858 8.125 20.5 8.125C20.9142 8.125 21.25 7.78921 21.25 7.375H19.75ZM19.75 3V7.375H21.25V3H19.75Z" fill="white"/>
<path d="M7.375 21.25C7.78921 21.25 8.125 20.9142 8.125 20.5C8.125 20.0858 7.78921 19.75 7.375 19.75L7.375 21.25ZM3 19.75L2.25 19.75L2.25 21.25L3 21.25L3 19.75ZM7.375 19.75L3 19.75L3 21.25L7.375 21.25L7.375 19.75Z" fill="white"/>
<path d="M2.25 20.5L2.25 21.25L3.75 21.25L3.75 20.5L2.25 20.5ZM3.75 16.125C3.75 15.7108 3.41421 15.375 3 15.375C2.58579 15.375 2.25 15.7108 2.25 16.125L3.75 16.125ZM3.75 20.5L3.75 16.125L2.25 16.125L2.25 20.5L3.75 20.5Z" fill="white"/>
<path d="M20.2117 4.34889L20.742 3.81856L19.6813 2.7579L19.151 3.28823L20.2117 4.34889ZM13.4942 8.94508C13.2013 9.23797 13.2013 9.71285 13.4942 10.0057C13.787 10.2986 14.2619 10.2986 14.5548 10.0057L13.4942 8.94508ZM19.151 3.28823L13.4942 8.94508L14.5548 10.0057L20.2117 4.34889L19.151 3.28823Z" fill="white"/>
<path d="M9.99896 14.5618C10.2919 14.2689 10.2919 13.7941 9.99896 13.5012C9.70606 13.2083 9.23119 13.2083 8.9383 13.5012L9.99896 14.5618ZM3.28144 19.158L2.75111 19.6883L3.81177 20.749L4.3421 20.2187L3.28144 19.158ZM8.9383 13.5012L3.28144 19.158L4.3421 20.2187L9.99896 14.5618L8.9383 13.5012Z" fill="white"/>
</svg>
