<svg width="24" height="24" viewBox="0 0 24 24" fill="none" xmlns="http://www.w3.org/2000/svg">
<path d="M3 5.7L9.3 3L14.7 5.7L20.3727 3.26883C20.6012 3.17093 20.8657 3.27674 20.9636 3.50518C20.9876 3.5612 21 3.6215 21 3.68244V18.3L14.7 21L9.3 18.3L3.62726 20.7312C3.39883 20.8291 3.13429 20.7232 3.03639 20.4948C3.01238 20.4388 3 20.3785 3 20.3175V5.7ZM15.6 18.6559L19.2 17.1131V5.72977L15.6 7.27262V18.6559ZM13.8 18.5375V7.26246L10.2 5.46246V16.7375L13.8 18.5375ZM8.4 16.7273V5.34406L4.8 6.88691V18.2702L8.4 16.7273Z" fill="white"/>
</svg>
