<svg xmlns="http://www.w3.org/2000/svg" stroke-linecap="round" stroke-linejoin="round" baseProfile="tiny" viewBox="0 0 120 120"><path fill="#000091" stroke="#fff" d="m1.8 52.7-.5-.2-.3-.7 1-.5.3-.8-.3-.4.4-.8-.2-1.8.1-1.1.4-.5.9-.2.1-.8-1.3-.7.3-.8 1.5-.6.7-.6.3-1.3-.4-.6.7-1 1.1-.6.1-1 .7-.6 1.5-.5.2-.4 1.2-.3 1 .3 1-.3.8-1.3 1.3.8 1.6.5 1.3.9v.6l1 .5-.3.3.6 1 1.1.3h1l1.2.3h.6l.5.6.8.3.2 1h.6l.3-.8 1.5.8.1.6.7.7h.6l.4-.4h1.4l.7-.3.5.4 1.3.3-.6.9.3.8 1-.2.8.5v.4h1l.6.7 3.1-.7 1.3.4-.3.8-1.4.9-.4 1.7-.7.5-.8-.4-1 .4v.4l.4 1 2.3-.8v1l-.6.8.3.4h1l1-1.3.5-.9.6.8-.7.8.5 1 1.3-.2 1.3-.7v-.8l.9-1-.2-.8.7-.3.5.7 1.6-1 .9.5.8-.2.5.9h-1.2l-.2.8.5.2.7-.5h.8v1l.4 1.8-.1.5.2.8-1 1.3.8 1.4-.4 1.4.3.6 1.1-.2-.5 1v.7h-1l-.6-1.2-.9-1-.7.5h-.6l-.2-.6h-1l-.3.4-1-.5-.7.5-.9 3.1.6.7-.3 1.2.7.8-1 1.2-.3 1.1.3 1.2.5 1 1.2.4v1l-.7.5-.3.8.6 1v1l1 .5.2 3 1.8.7.5-.2.6 1-.1.3-1.4 1-.4 1.4.6 1.4.8.3.4 1v1l.4.8-.3 2 .3.7-.3.7v2.1l.1.8.8.7.1.5-.7.7-.4.9-.5.6-.1 1.6-.8.8v.8l-1 .8-.8.4-.8 1-.9.4-.7 1-2 1.2-.3 1-.8.6-.7.2-.4.4v1.4l-1 1 .3.7-1.2.4-.4-.2-.5 1-.8.1-.7-.2h-1.2l-.7-.4-1 .6-1.1 1.2-.5-.7h-.7l-.8.5-1 1.7-.9.4-2 .3-1.7.5-1-.5-.7-1.2.3-1.2-.7-2.5-.8-1.3-1.3-.8-1.9-1.8-.4-.7-1.4-1.1-.8-1.4v-2l-.7-2.2-.6-.5-.4-.8-1-1.2-.7-.4-.5-1-.6-1.5.3-.9L9 90l-.2-1.1.4-.5-1-2.1.4-.5-.6-.4.3-.6-.2-.8-.2-2.3.1-1.6.7-.6-.4-1.4-1.2-.7.6-1.8-.3-1.3v-3l-.5-.6-.7.2-.2-.5v-1.9l.2-.5-.6-.9-.1-.6.3-1.5.3-.4.1-1.5-.2-.5-.4-1.8L4.4 59l-.6-.2-.7-.9-.4-.2-.3-1.8-.6-1.2zm51.6 9.2V61l-1-.3.2-.6-.6-1-1.2-1.5V57l-1.2-1 .3-1.7-.5-2.6.2-1.5-.6-1.3.4-.8.6-.3.8.5-.2-1.2-.9-.5 1-.7.7-1 .7-1.6-.4-.6.5-1.5-.4-1 1.1-1 .1-.5.8-.5.4-.6.5.4 2.2.2.6-1.2.6-.7 1-1.7-1-.6.8-.5v-1.1l.3-.9-.8-1.3-.6-.2-.6-.8-.4.6-.7-.6-2.6-1.1-.6-1.1-.1-1.8-.7-.9-.2-1 .2-.8-.8-1.5v-.7l-.7-.6.7-1 .3-1.3v-.9l1.3-1.1 1-.4.3-.8.8-.8h1l.8-.6.7-1.9h.5l1-.5.5-.5 1.3-.4.1-.6 1-.8.4-1.2.4-.2.4-.9h1.1l.8 1.1.2 1 2 .2 1.4-.2.1 1.8h.6l1 .6.2.5.9.3.2.8 1 .7.7.1.8 1h.5l.3.8-.2.8.4.2.5 1.6-.3.7.9.4.9 3.3v1.8l-.7.7.3.6-.2.8-.7.2.3 1-.3 1.2.2.7-.3.9.5 1 .4 1.5.8 1.3.7.7 1.4 2.3.4.3.6 1 1 .8 1.4.4-.3.6h1l.4-.1 1.6.4 1-.4 1.3 1.1v-.6l1.2-.1 1.6.2.7.4h1l.8-.3 1.3 1.2.9-.4h.6l.2.8 1.1.5.5-.2 2 1 .3.7 1.7.7 1.2.9.6 1.1v.6l1.1 1.4 1 2.2.5.6 1.2.9 3.4 1.1.2.5 1.4.4.5.5.9.2.6-.2 1.2.3h1l1.2.9 1.2.6-.4.8-.7-.7-2.3-1-1 .2-3-.2-1.6-.5-1.4.2-2.6-.5h-1l-1-.2-.8.3-1.4.8H100l-1.6.4-.2.4-.8.4-2.2.3-3.3.5-1.5-.2h-2l-.1.3-2 .8-2.4.3-1.3.5-.5.8-.6.3-.8.9-1-.3H79l-.7.4-.2.8-.7-.4-1.4.5-.6 1-2 .4h-1l-.3-.2-2 .4-.8.3-.1.6-1.4.7H67l-.2-.3-.9.4-.5.7-.7-.5-.7.1-.7-.5L62 65l-.8-.6-1.4.1L57 64l.2-1-.8-.8-.7.4-.6-.1-.8.4-.9-.6z" data-anchor-x="60" data-anchor-y="60" data-fill-id="1" data-name="Guadeloupe"/></svg>